<svg width="447" height="138" viewBox="0 0 447 138" fill="none" xmlns="http://www.w3.org/2000/svg">
<rect width="447" height="138" fill="#E5E5E5"/>
<rect width="447" height="138" fill="white"/>
<path d="M21.784 90.448C18.0133 90.448 14.728 89.6453 11.928 88.04C9.128 86.3973 6.98133 84.064 5.488 81.04C3.99467 77.9787 3.248 74.376 3.248 70.232C3.248 66.1253 3.99467 62.56 5.488 59.536C6.98133 56.4747 9.128 54.1413 11.928 52.536C14.728 50.8933 18.0133 50.072 21.784 50.072C24.248 50.072 26.5813 50.464 28.784 51.248C30.9867 51.9947 32.9093 53.096 34.552 54.552C35.2613 55.112 35.616 55.8587 35.616 56.792C35.616 57.464 35.4293 58.0427 35.056 58.528C34.6827 58.976 34.2347 59.2 33.712 59.2C33.0773 59.2 32.4613 58.9573 31.864 58.472C30.072 57.128 28.4293 56.1947 26.936 55.672C25.48 55.112 23.8187 54.832 21.952 54.832C17.8453 54.832 14.6907 56.1573 12.488 58.808C10.2853 61.4587 9.184 65.2667 9.184 70.232C9.184 75.2347 10.2853 79.0613 12.488 81.712C14.6907 84.3627 17.8453 85.688 21.952 85.688C23.744 85.688 25.368 85.408 26.824 84.848C28.3173 84.288 29.9973 83.3547 31.864 82.048C32.6107 81.5627 33.2267 81.32 33.712 81.32C34.2347 81.32 34.6827 81.5627 35.056 82.048C35.4293 82.496 35.616 83.056 35.616 83.728C35.616 84.6613 35.2613 85.408 34.552 85.968C32.9093 87.424 30.9867 88.544 28.784 89.328C26.5813 90.0747 24.248 90.448 21.784 90.448ZM45.3464 90C44.4504 90 43.7411 89.7573 43.2184 89.272C42.7331 88.7493 42.4904 88.0587 42.4904 87.2V53.32C42.4904 52.4613 42.7331 51.7893 43.2184 51.304C43.7411 50.7813 44.4504 50.52 45.3464 50.52H65.9544C66.8131 50.52 67.4664 50.7253 67.9144 51.136C68.3998 51.5467 68.6424 52.1253 68.6424 52.872C68.6424 53.6187 68.3998 54.1973 67.9144 54.608C67.4664 54.9813 66.8131 55.168 65.9544 55.168H48.1464V67.6H64.8344C65.6931 67.6 66.3464 67.8053 66.7944 68.216C67.2798 68.6267 67.5224 69.2053 67.5224 69.952C67.5224 70.6987 67.2798 71.2773 66.7944 71.688C66.3464 72.0987 65.6931 72.304 64.8344 72.304H48.1464V85.352H65.9544C67.7464 85.352 68.6424 86.1173 68.6424 87.648C68.6424 88.3947 68.3998 88.9733 67.9144 89.384C67.4664 89.7947 66.8131 90 65.9544 90H45.3464ZM99.6708 51.248C100.193 50.576 100.847 50.24 101.631 50.24C102.303 50.24 102.9 50.52 103.423 51.08C103.983 51.6027 104.263 52.2187 104.263 52.928C104.263 53.6 104.039 54.1787 103.591 54.664L90.3748 71.128V87.368C90.3748 88.3013 90.0948 89.0293 89.5348 89.552C89.0121 90.0373 88.3215 90.28 87.4628 90.28C86.6041 90.28 85.9135 90.0373 85.3908 89.552C84.8681 89.0293 84.6068 88.3013 84.6068 87.368V71.128L71.3908 54.664C70.9428 54.1787 70.7188 53.5813 70.7188 52.872C70.7188 52.1627 70.9801 51.5467 71.5028 51.024C72.0255 50.5013 72.6415 50.24 73.3508 50.24C74.0975 50.24 74.7508 50.576 75.3108 51.248L87.5188 66.592L99.6708 51.248ZM112.009 90C111.151 90 110.46 89.7573 109.937 89.272C109.452 88.7867 109.209 88.1333 109.209 87.312V53.152C109.209 52.2933 109.471 51.6027 109.993 51.08C110.516 50.52 111.207 50.24 112.065 50.24C112.961 50.24 113.671 50.5013 114.193 51.024C114.716 51.5467 114.977 52.256 114.977 53.152V85.184H132.001C132.86 85.184 133.513 85.3893 133.961 85.8C134.447 86.2107 134.689 86.808 134.689 87.592C134.689 88.376 134.447 88.9733 133.961 89.384C133.513 89.7947 132.86 90 132.001 90H112.009ZM174.065 86.64C174.251 87.088 174.345 87.4613 174.345 87.76C174.345 88.4693 174.046 89.0667 173.449 89.552C172.889 90.0373 172.254 90.28 171.545 90.28C171.059 90.28 170.593 90.1493 170.145 89.888C169.734 89.5893 169.417 89.1787 169.193 88.656L165.497 80.256H145.001L141.305 88.656C141.081 89.1787 140.745 89.5893 140.297 89.888C139.849 90.1493 139.382 90.28 138.897 90.28C138.15 90.28 137.478 90.0373 136.881 89.552C136.321 89.0667 136.041 88.4693 136.041 87.76C136.041 87.4613 136.134 87.088 136.321 86.64L152.113 52.088C152.374 51.4907 152.785 51.024 153.345 50.688C153.942 50.352 154.558 50.184 155.193 50.184C155.827 50.184 156.425 50.352 156.985 50.688C157.582 51.024 158.011 51.4907 158.273 52.088L174.065 86.64ZM147.073 75.664H163.481L155.249 57.128L147.073 75.664ZM210.038 50.24C210.859 50.24 211.512 50.52 211.998 51.08C212.52 51.6027 212.782 52.2933 212.782 53.152V87.368C212.782 88.2267 212.52 88.936 211.998 89.496C211.475 90.0187 210.803 90.28 209.982 90.28C209.011 90.28 208.264 89.9067 207.742 89.16L185.79 60.208V87.368C185.79 88.2267 185.528 88.936 185.006 89.496C184.52 90.0187 183.867 90.28 183.046 90.28C182.224 90.28 181.571 90.0187 181.086 89.496C180.6 88.9733 180.358 88.264 180.358 87.368V53.152C180.358 52.2933 180.619 51.6027 181.142 51.08C181.664 50.52 182.336 50.24 183.158 50.24C184.128 50.24 184.875 50.6133 185.398 51.36L207.35 80.368V53.152C207.35 52.2933 207.592 51.6027 208.078 51.08C208.563 50.52 209.216 50.24 210.038 50.24ZM239.596 90.28C238.738 90.28 238.047 90.0187 237.524 89.496C237.002 88.9733 236.74 88.264 236.74 87.368V53.152C236.74 52.2933 237.002 51.6027 237.524 51.08C238.047 50.52 238.738 50.24 239.596 50.24C240.492 50.24 241.202 50.5013 241.724 51.024C242.247 51.5467 242.508 52.256 242.508 53.152V87.368C242.508 88.264 242.247 88.9733 241.724 89.496C241.239 90.0187 240.53 90.28 239.596 90.28ZM239.596 46.096C238.514 46.096 237.655 45.7973 237.02 45.2C236.386 44.6027 236.068 43.8187 236.068 42.848C236.068 41.84 236.386 41.056 237.02 40.496C237.655 39.8987 238.514 39.6 239.596 39.6C240.642 39.6 241.482 39.8987 242.116 40.496C242.788 41.056 243.124 41.84 243.124 42.848C243.124 43.8187 242.807 44.6027 242.172 45.2C241.538 45.7973 240.679 46.096 239.596 46.096ZM281.35 50.24C282.171 50.24 282.825 50.52 283.31 51.08C283.833 51.6027 284.094 52.2933 284.094 53.152V87.368C284.094 88.2267 283.833 88.936 283.31 89.496C282.787 90.0187 282.115 90.28 281.294 90.28C280.323 90.28 279.577 89.9067 279.054 89.16L257.102 60.208V87.368C257.102 88.2267 256.841 88.936 256.318 89.496C255.833 90.0187 255.179 90.28 254.358 90.28C253.537 90.28 252.883 90.0187 252.398 89.496C251.913 88.9733 251.67 88.264 251.67 87.368V53.152C251.67 52.2933 251.931 51.6027 252.454 51.08C252.977 50.52 253.649 50.24 254.47 50.24C255.441 50.24 256.187 50.6133 256.71 51.36L278.662 80.368V53.152C278.662 52.2933 278.905 51.6027 279.39 51.08C279.875 50.52 280.529 50.24 281.35 50.24ZM321.287 79.024C321.287 81.152 320.709 83.056 319.551 84.736C318.431 86.416 316.826 87.76 314.735 88.768C312.682 89.7387 310.293 90.28 307.567 90.392L307.287 92.464C307.81 92.352 308.277 92.296 308.687 92.296C309.845 92.296 310.815 92.632 311.599 93.304C312.421 93.976 312.831 94.928 312.831 96.16C312.831 97.5413 312.234 98.6613 311.039 99.52C309.845 100.416 308.146 100.864 305.943 100.864C304.487 100.864 303.199 100.659 302.079 100.248C301.407 99.9867 301.071 99.52 301.071 98.848C301.071 98.4 301.221 98.0267 301.519 97.728C301.855 97.4293 302.285 97.3547 302.807 97.504C303.927 97.8027 304.973 97.952 305.943 97.952C306.914 97.952 307.661 97.8027 308.183 97.504C308.706 97.2053 308.967 96.7573 308.967 96.16C308.967 95.712 308.818 95.3573 308.519 95.096C308.258 94.872 307.866 94.76 307.343 94.76C306.97 94.76 306.466 94.8347 305.831 94.984C305.197 95.1333 304.805 95.208 304.655 95.208C304.357 95.208 304.077 95.096 303.815 94.872C303.591 94.6853 303.498 94.424 303.535 94.088L303.983 90.336C301.557 90.1493 299.298 89.6827 297.207 88.936C295.117 88.152 293.418 87.1813 292.111 86.024C291.402 85.4267 291.047 84.6613 291.047 83.728C291.047 83.056 291.234 82.496 291.607 82.048C291.981 81.5627 292.429 81.32 292.951 81.32C293.474 81.32 294.109 81.5627 294.855 82.048C298.178 84.512 301.967 85.744 306.223 85.744C309.21 85.744 311.506 85.184 313.111 84.064C314.717 82.944 315.519 81.3387 315.519 79.248C315.519 77.6053 314.773 76.3733 313.279 75.552C311.786 74.7307 309.397 73.9467 306.111 73.2C302.975 72.528 300.399 71.7627 298.383 70.904C296.367 70.0453 294.781 68.888 293.623 67.432C292.503 65.9387 291.943 64.0533 291.943 61.776C291.943 59.4987 292.559 57.4827 293.791 55.728C295.061 53.936 296.815 52.5547 299.055 51.584C301.295 50.576 303.853 50.072 306.727 50.072C309.378 50.072 311.823 50.4453 314.063 51.192C316.303 51.9387 318.207 53.04 319.775 54.496C320.522 55.1307 320.895 55.896 320.895 56.792C320.895 57.4267 320.69 57.9867 320.279 58.472C319.906 58.9573 319.458 59.2 318.935 59.2C318.45 59.2 317.834 58.9573 317.087 58.472C315.37 57.1653 313.746 56.232 312.215 55.672C310.722 55.0747 308.911 54.776 306.783 54.776C303.909 54.776 301.669 55.3733 300.063 56.568C298.458 57.7253 297.655 59.3493 297.655 61.44C297.655 63.232 298.365 64.5947 299.783 65.528C301.202 66.424 303.479 67.2453 306.615 67.992C309.901 68.7387 312.551 69.5227 314.567 70.344C316.621 71.128 318.245 72.2293 319.439 73.648C320.671 75.0293 321.287 76.8213 321.287 79.024ZM362.955 86.64C363.142 87.088 363.235 87.4613 363.235 87.76C363.235 88.4693 362.937 89.0667 362.339 89.552C361.779 90.0373 361.145 90.28 360.435 90.28C359.95 90.28 359.483 90.1493 359.035 89.888C358.625 89.5893 358.307 89.1787 358.083 88.656L354.387 80.256H333.891L330.195 88.656C329.971 89.1787 329.635 89.5893 329.187 89.888C328.739 90.1493 328.273 90.28 327.787 90.28C327.041 90.28 326.369 90.0373 325.771 89.552C325.211 89.0667 324.931 88.4693 324.931 87.76C324.931 87.4613 325.025 87.088 325.211 86.64L341.003 52.088C341.265 51.4907 341.675 51.024 342.235 50.688C342.833 50.352 343.449 50.184 344.083 50.184C344.718 50.184 345.315 50.352 345.875 50.688C346.473 51.024 346.902 51.4907 347.163 52.088L362.955 86.64ZM335.963 75.664H352.371L344.139 57.128L335.963 75.664ZM404.08 86.64C404.267 87.088 404.36 87.4613 404.36 87.76C404.36 88.4693 404.062 89.0667 403.464 89.552C402.904 90.0373 402.27 90.28 401.56 90.28C401.075 90.28 400.608 90.1493 400.16 89.888C399.75 89.5893 399.432 89.1787 399.208 88.656L395.512 80.256H375.016L371.32 88.656C371.096 89.1787 370.76 89.5893 370.312 89.888C369.864 90.1493 369.398 90.28 368.912 90.28C368.166 90.28 367.494 90.0373 366.896 89.552C366.336 89.0667 366.056 88.4693 366.056 87.76C366.056 87.4613 366.15 87.088 366.336 86.64L382.128 52.088C382.39 51.4907 382.8 51.024 383.36 50.688C383.958 50.352 384.574 50.184 385.208 50.184C385.843 50.184 386.44 50.352 387 50.688C387.598 51.024 388.027 51.4907 388.288 52.088L404.08 86.64ZM377.088 75.664H393.496L385.264 57.128L377.088 75.664ZM417.935 90.28C417.077 90.28 416.367 90.0187 415.807 89.496C415.285 88.936 415.023 88.2267 415.023 87.368V55.336H403.823C402.031 55.336 401.135 54.5333 401.135 52.928C401.135 52.144 401.359 51.5467 401.807 51.136C402.293 50.7253 402.965 50.52 403.823 50.52H432.047C432.906 50.52 433.559 50.7253 434.007 51.136C434.493 51.5467 434.735 52.144 434.735 52.928C434.735 54.5333 433.839 55.336 432.047 55.336H420.847V87.368C420.847 88.2267 420.586 88.936 420.063 89.496C419.541 90.0187 418.831 90.28 417.935 90.28Z" fill="#696969"/>
</svg>
