<?xml version="1.0" encoding="utf-8"?>
<!-- Generator: Adobe Illustrator 23.0.4, SVG Export Plug-In . SVG Version: 6.00 Build 0)  -->
<svg version="1.1" id="Layer_1" xmlns="http://www.w3.org/2000/svg" xmlns:xlink="http://www.w3.org/1999/xlink" x="0px" y="0px"
	 viewBox="0 0 200 30" style="enable-background:new 0 0 200 30;" xml:space="preserve">
<style type="text/css">
	.st0{fill-rule:evenodd;clip-rule:evenodd;fill:#78853B;}
	.st1{fill-rule:evenodd;clip-rule:evenodd;fill:#333333;}
</style>
<title>DF_Logotype</title>
<desc>Created with Sketch.</desc>
<g id="Symbols">
	<g id="Footer" transform="translate(-21.000000, -20.000000)">
		<g id="DF_Logotype">
			<g transform="translate(21.000000, 20.000000)">
				<path id="Combined-Shape" class="st0" d="M19.8,6.7L5,21.7l-3.9-4c-1.5-1.5-1.5-3.9,0-5.3l9.5-9.7c1.5-1.5,3.8-1.5,5.3,0
					L19.8,6.7z M13.3,30l-6.6-6.7L29.7,0l6.6,6.7L13.3,30z M36.3,23.3L29.7,30l-6.6-6.7l6.6-6.7L36.3,23.3z M37.9,21.7L31.3,15
					l6.6-6.7l6.6,6.7L37.9,21.7z"/>
				<path class="st1" d="M61,5.7c6,0,8.2,2.1,8.2,9.2c0,7.1-2.3,10.1-8.2,10.1c-2.5,0-5.1-0.1-7.4-0.3c-0.3,0-0.4-0.1-0.4-0.3v-18
					c0-0.3,0.1-0.3,0.4-0.4C55.9,5.7,58.5,5.7,61,5.7z M60.8,9.2h-3.6v12.2H61c3.1,0,4.2-2,4.2-6.5C65.2,10.3,64,9.2,60.8,9.2z
					 M77.7,10.3c5,0,6.2,1.4,6.2,7.1v0.8c0,0.5-0.2,0.7-0.8,0.7h-8c0,2.3,0.7,2.7,2.9,2.7h4.5c0.3,0,0.4,0.1,0.4,0.4v2.1
					c0,0.3-0.1,0.4-0.4,0.4c-1.3,0.3-3.2,0.4-4.8,0.4c-5.1,0-6.4-1.5-6.4-7.3C71.4,11.7,72.6,10.3,77.7,10.3z M77.7,13.6
					c-1.9,0-2.5,0.6-2.6,2.8h5C80.2,14.2,79.6,13.6,77.7,13.6z M91.7,10.3c1.1,0,2.5,0.1,4,0.3c0.3,0.1,0.4,0.2,0.4,0.4v2
					c0,0.3-0.1,0.4-0.4,0.4h-4.6c-1,0-1.5,0.3-1.5,0.9v0.3c0,0.5,0.3,0.8,1.2,1.2l3.2,1.2c2.2,0.8,2.7,2.1,2.7,3.8v0.4
					c0,3-2.2,3.7-5.4,3.7c-2.2,0-4-0.1-5.3-0.3c-0.3,0-0.4-0.1-0.4-0.4v-2.1c0-0.3,0.1-0.4,0.4-0.4h5.2c1.3,0,1.8-0.2,1.8-0.9v-0.2
					c0-0.5-0.3-0.8-1.4-1.2l-3.1-1.1c-2-0.7-2.6-2.3-2.6-3.9V14C86,11.2,88.1,10.3,91.7,10.3z M101.7,4.4c1.4,0,2.2,0.7,2.2,2.1
					c0,1.3-0.8,2.1-2.2,2.1c-1.4,0-2.2-0.8-2.2-2.1C99.5,5.1,100.3,4.4,101.7,4.4z M100.2,10.4h3c0.3,0,0.4,0.1,0.4,0.4v13.7
					c0,0.3-0.1,0.4-0.4,0.4h-3c-0.3,0-0.4-0.1-0.4-0.4V10.8C99.8,10.5,100,10.4,100.2,10.4z M113.1,10.3c2,0,4.1,0.2,5.6,0.5
					c0.3,0.1,0.5,0.3,0.5,0.6v13.1c0,3.8-0.8,5.3-6.2,5.3c-1.5,0-3.2-0.1-4.7-0.4c-0.2,0-0.4-0.1-0.4-0.4v-2c0-0.3,0.1-0.4,0.4-0.4
					h4.4c2.2,0,2.8-0.1,2.8-1.8v-0.2c-1.1,0.2-2,0.3-3.1,0.3c-4.6,0-5.9-1.6-5.9-7.5C106.4,11.8,107.7,10.3,113.1,10.3z M115.4,13.6
					h-2.5c-2.5,0-2.7,1-2.7,4c0,3.3,0.4,4,2.9,4c0.6,0,1.5,0,2.3-0.2V13.6z M128.9,10.3c4.9,0,6.1,0.9,6.1,6.2v8.1
					c0,0.3-0.2,0.4-0.4,0.4h-3c-0.3,0-0.4-0.1-0.4-0.4v-7.1c0-3.7-0.4-3.8-2.7-3.8h-2.3v10.9c0,0.3-0.1,0.4-0.4,0.4h-3
					c-0.3,0-0.4-0.1-0.4-0.4V11.1c0-0.3,0.1-0.3,0.4-0.4C124.5,10.3,127,10.3,128.9,10.3z M139.3,5.7h11.5c0.3,0,0.4,0.1,0.4,0.4
					v2.7c0,0.3-0.1,0.4-0.4,0.4h-7.9v4.1h7c0.3,0,0.4,0.1,0.4,0.4v2.6c0,0.3-0.2,0.4-0.4,0.4h-7v7.8c0,0.3-0.1,0.4-0.4,0.4h-3.2
					c-0.3,0-0.4-0.1-0.4-0.4V6C138.9,5.8,139.1,5.7,139.3,5.7z M154.4,5.7h3c0.3,0,0.4,0.1,0.4,0.4v18.5c0,0.3-0.1,0.4-0.4,0.4h-3
					c-0.3,0-0.4-0.1-0.4-0.4V6C154,5.8,154.1,5.7,154.4,5.7z M167.1,10.3c5.3,0,6.5,1.4,6.5,7.3c0,5.9-1.2,7.3-6.5,7.3
					c-5.3,0-6.5-1.5-6.5-7.3C160.7,11.7,161.9,10.3,167.1,10.3z M167.1,13.6c-2.3,0-2.7,0.8-2.7,4c0,3.2,0.4,4,2.7,4
					c2.3,0,2.7-0.8,2.7-4C169.8,14.4,169.5,13.6,167.1,13.6z M182.1,10.3c5.3,0,6.5,1.4,6.5,7.3c0,5.9-1.2,7.3-6.5,7.3
					c-5.3,0-6.5-1.5-6.5-7.3C175.7,11.7,176.9,10.3,182.1,10.3z M182.1,13.6c-2.3,0-2.7,0.8-2.7,4c0,3.2,0.4,4,2.7,4
					c2.3,0,2.7-0.8,2.7-4C184.9,14.4,184.5,13.6,182.1,13.6z M195.6,10.3c0.7,0,2.5,0.1,3.4,0.3c0.3,0.1,0.4,0.2,0.4,0.5v2.1
					c0,0.3-0.2,0.4-0.4,0.4h-2.4c-1.3,0-1.8,0.2-1.8,1.3v9.6c0,0.3-0.1,0.4-0.4,0.4h-3c-0.3,0-0.4-0.1-0.4-0.4V13.9
					C191,10.7,193.3,10.3,195.6,10.3z"/>
			</g>
		</g>
	</g>
</g>
</svg>
