<svg width="447" height="138" viewBox="0 0 447 138" fill="none" xmlns="http://www.w3.org/2000/svg">
<rect width="447" height="138" fill="#E5E5E5"/>
<rect width="447" height="138" fill="white"/>
<path d="M18.3503 90C17.4543 90 16.745 89.7573 16.2223 89.272C15.737 88.7493 15.4943 88.0587 15.4943 87.2V53.32C15.4943 52.4613 15.737 51.7893 16.2223 51.304C16.745 50.7813 17.4543 50.52 18.3503 50.52H29.3263C35.7103 50.52 40.657 52.2373 44.1663 55.672C47.6757 59.1067 49.4303 63.96 49.4303 70.232C49.4303 76.504 47.6757 81.376 44.1663 84.848C40.657 88.2827 35.7103 90 29.3263 90H18.3503ZM28.9903 85.184C38.697 85.184 43.5503 80.2 43.5503 70.232C43.5503 60.3013 38.697 55.336 28.9903 55.336H21.2623V85.184H28.9903ZM60.1316 90.28C59.2729 90.28 58.5823 90.0187 58.0596 89.496C57.5369 88.9733 57.2756 88.264 57.2756 87.368V53.152C57.2756 52.2933 57.5369 51.6027 58.0596 51.08C58.5823 50.52 59.2729 50.24 60.1316 50.24C61.0276 50.24 61.7369 50.5013 62.2596 51.024C62.7823 51.5467 63.0436 52.256 63.0436 53.152V87.368C63.0436 88.264 62.7823 88.9733 62.2596 89.496C61.7743 90.0187 61.0649 90.28 60.1316 90.28ZM60.1316 46.096C59.0489 46.096 58.1903 45.7973 57.5556 45.2C56.9209 44.6027 56.6036 43.8187 56.6036 42.848C56.6036 41.84 56.9209 41.056 57.5556 40.496C58.1903 39.8987 59.0489 39.6 60.1316 39.6C61.1769 39.6 62.0169 39.8987 62.6516 40.496C63.3236 41.056 63.6596 41.84 63.6596 42.848C63.6596 43.8187 63.3423 44.6027 62.7076 45.2C62.0729 45.7973 61.2143 46.096 60.1316 46.096ZM101.885 50.24C102.707 50.24 103.36 50.52 103.845 51.08C104.368 51.6027 104.629 52.2933 104.629 53.152V87.368C104.629 88.2267 104.368 88.936 103.845 89.496C103.323 90.0187 102.651 90.28 101.829 90.28C100.859 90.28 100.112 89.9067 99.5893 89.16L77.6373 60.208V87.368C77.6373 88.2267 77.3759 88.936 76.8533 89.496C76.3679 90.0187 75.7146 90.28 74.8933 90.28C74.0719 90.28 73.4186 90.0187 72.9333 89.496C72.4479 88.9733 72.2053 88.264 72.2053 87.368V53.152C72.2053 52.2933 72.4666 51.6027 72.9893 51.08C73.5119 50.52 74.1839 50.24 75.0053 50.24C75.9759 50.24 76.7226 50.6133 77.2453 51.36L99.1973 80.368V53.152C99.1973 52.2933 99.4399 51.6027 99.9253 51.08C100.411 50.52 101.064 50.24 101.885 50.24ZM131.014 90.448C127.244 90.448 123.958 89.6453 121.158 88.04C118.358 86.3973 116.212 84.064 114.718 81.04C113.225 77.9787 112.478 74.376 112.478 70.232C112.478 66.1253 113.225 62.56 114.718 59.536C116.212 56.4747 118.358 54.1413 121.158 52.536C123.958 50.8933 127.244 50.072 131.014 50.072C133.478 50.072 135.812 50.464 138.014 51.248C140.217 51.9947 142.14 53.096 143.782 54.552C144.492 55.112 144.846 55.8587 144.846 56.792C144.846 57.464 144.66 58.0427 144.286 58.528C143.913 58.976 143.465 59.2 142.942 59.2C142.308 59.2 141.692 58.9573 141.094 58.472C139.302 57.128 137.66 56.1947 136.166 55.672C134.71 55.112 133.049 54.832 131.182 54.832C127.076 54.832 123.921 56.1573 121.718 58.808C119.516 61.4587 118.414 65.2667 118.414 70.232C118.414 75.2347 119.516 79.0613 121.718 81.712C123.921 84.3627 127.076 85.688 131.182 85.688C132.974 85.688 134.598 85.408 136.054 84.848C137.548 84.288 139.228 83.3547 141.094 82.048C141.841 81.5627 142.457 81.32 142.942 81.32C143.465 81.32 143.913 81.5627 144.286 82.048C144.66 82.496 144.846 83.056 144.846 83.728C144.846 84.6613 144.492 85.408 143.782 85.968C142.14 87.424 140.217 88.544 138.014 89.328C135.812 90.0747 133.478 90.448 131.014 90.448ZM154.577 90C153.681 90 152.972 89.7573 152.449 89.272C151.964 88.7493 151.721 88.0587 151.721 87.2V53.32C151.721 52.4613 151.964 51.7893 152.449 51.304C152.972 50.7813 153.681 50.52 154.577 50.52H175.185C176.044 50.52 176.697 50.7253 177.145 51.136C177.63 51.5467 177.873 52.1253 177.873 52.872C177.873 53.6187 177.63 54.1973 177.145 54.608C176.697 54.9813 176.044 55.168 175.185 55.168H157.377V67.6H174.065C174.924 67.6 175.577 67.8053 176.025 68.216C176.51 68.6267 176.753 69.2053 176.753 69.952C176.753 70.6987 176.51 71.2773 176.025 71.688C175.577 72.0987 174.924 72.304 174.065 72.304H157.377V85.352H175.185C176.977 85.352 177.873 86.1173 177.873 87.648C177.873 88.3947 177.63 88.9733 177.145 89.384C176.697 89.7947 176.044 90 175.185 90H154.577ZM215.279 86.416C215.615 86.9013 215.783 87.424 215.783 87.984C215.783 88.656 215.503 89.2347 214.943 89.72C214.42 90.168 213.804 90.392 213.095 90.392C212.049 90.392 211.209 89.9253 210.575 88.992L203.071 77.344C202.212 76 201.297 75.0667 200.327 74.544C199.356 73.984 198.087 73.704 196.519 73.704H190.191V87.368C190.191 88.264 189.929 88.9733 189.407 89.496C188.921 90.0187 188.231 90.28 187.335 90.28C186.476 90.28 185.785 90.0187 185.263 89.496C184.74 88.9733 184.479 88.264 184.479 87.368V53.32C184.479 52.4613 184.721 51.7893 185.207 51.304C185.729 50.7813 186.439 50.52 187.335 50.52H201.279C205.647 50.52 208.969 51.4907 211.247 53.432C213.561 55.3733 214.719 58.2107 214.719 61.944C214.719 65.0427 213.841 67.5627 212.087 69.504C210.332 71.408 207.831 72.6213 204.583 73.144C205.553 73.4053 206.431 73.872 207.215 74.544C207.999 75.216 208.764 76.1493 209.511 77.344L215.279 86.416ZM200.607 69.056C203.519 69.056 205.665 68.496 207.047 67.376C208.465 66.2187 209.175 64.4453 209.175 62.056C209.175 59.6667 208.484 57.9307 207.103 56.848C205.721 55.728 203.556 55.168 200.607 55.168H190.135V69.056H200.607ZM240.764 90.28C239.906 90.28 239.215 90.0187 238.692 89.496C238.17 88.9733 237.908 88.264 237.908 87.368V53.152C237.908 52.2933 238.17 51.6027 238.692 51.08C239.215 50.52 239.906 50.24 240.764 50.24C241.66 50.24 242.37 50.5013 242.892 51.024C243.415 51.5467 243.676 52.256 243.676 53.152V87.368C243.676 88.264 243.415 88.9733 242.892 89.496C242.407 90.0187 241.698 90.28 240.764 90.28ZM240.764 46.096C239.682 46.096 238.823 45.7973 238.188 45.2C237.554 44.6027 237.236 43.8187 237.236 42.848C237.236 41.84 237.554 41.056 238.188 40.496C238.823 39.8987 239.682 39.6 240.764 39.6C241.81 39.6 242.65 39.8987 243.284 40.496C243.956 41.056 244.292 41.84 244.292 42.848C244.292 43.8187 243.975 44.6027 243.34 45.2C242.706 45.7973 241.847 46.096 240.764 46.096ZM282.518 50.24C283.339 50.24 283.993 50.52 284.478 51.08C285.001 51.6027 285.262 52.2933 285.262 53.152V87.368C285.262 88.2267 285.001 88.936 284.478 89.496C283.955 90.0187 283.283 90.28 282.462 90.28C281.491 90.28 280.745 89.9067 280.222 89.16L258.27 60.208V87.368C258.27 88.2267 258.009 88.936 257.486 89.496C257.001 90.0187 256.347 90.28 255.526 90.28C254.705 90.28 254.051 90.0187 253.566 89.496C253.081 88.9733 252.838 88.264 252.838 87.368V53.152C252.838 52.2933 253.099 51.6027 253.622 51.08C254.145 50.52 254.817 50.24 255.638 50.24C256.609 50.24 257.355 50.6133 257.878 51.36L279.83 80.368V53.152C279.83 52.2933 280.073 51.6027 280.558 51.08C281.043 50.52 281.697 50.24 282.518 50.24ZM322.455 79.024C322.455 81.152 321.877 83.056 320.719 84.736C319.599 86.416 317.994 87.76 315.903 88.768C313.85 89.7387 311.461 90.28 308.735 90.392L308.455 92.464C308.978 92.352 309.445 92.296 309.855 92.296C311.013 92.296 311.983 92.632 312.767 93.304C313.589 93.976 313.999 94.928 313.999 96.16C313.999 97.5413 313.402 98.6613 312.207 99.52C311.013 100.416 309.314 100.864 307.111 100.864C305.655 100.864 304.367 100.659 303.247 100.248C302.575 99.9867 302.239 99.52 302.239 98.848C302.239 98.4 302.389 98.0267 302.687 97.728C303.023 97.4293 303.453 97.3547 303.975 97.504C305.095 97.8027 306.141 97.952 307.111 97.952C308.082 97.952 308.829 97.8027 309.351 97.504C309.874 97.2053 310.135 96.7573 310.135 96.16C310.135 95.712 309.986 95.3573 309.687 95.096C309.426 94.872 309.034 94.76 308.511 94.76C308.138 94.76 307.634 94.8347 306.999 94.984C306.365 95.1333 305.973 95.208 305.823 95.208C305.525 95.208 305.245 95.096 304.983 94.872C304.759 94.6853 304.666 94.424 304.703 94.088L305.151 90.336C302.725 90.1493 300.466 89.6827 298.375 88.936C296.285 88.152 294.586 87.1813 293.279 86.024C292.57 85.4267 292.215 84.6613 292.215 83.728C292.215 83.056 292.402 82.496 292.775 82.048C293.149 81.5627 293.597 81.32 294.119 81.32C294.642 81.32 295.277 81.5627 296.023 82.048C299.346 84.512 303.135 85.744 307.391 85.744C310.378 85.744 312.674 85.184 314.279 84.064C315.885 82.944 316.687 81.3387 316.687 79.248C316.687 77.6053 315.941 76.3733 314.447 75.552C312.954 74.7307 310.565 73.9467 307.279 73.2C304.143 72.528 301.567 71.7627 299.551 70.904C297.535 70.0453 295.949 68.888 294.791 67.432C293.671 65.9387 293.111 64.0533 293.111 61.776C293.111 59.4987 293.727 57.4827 294.959 55.728C296.229 53.936 297.983 52.5547 300.223 51.584C302.463 50.576 305.021 50.072 307.895 50.072C310.546 50.072 312.991 50.4453 315.231 51.192C317.471 51.9387 319.375 53.04 320.943 54.496C321.69 55.1307 322.063 55.896 322.063 56.792C322.063 57.4267 321.858 57.9867 321.447 58.472C321.074 58.9573 320.626 59.2 320.103 59.2C319.618 59.2 319.002 58.9573 318.255 58.472C316.538 57.1653 314.914 56.232 313.383 55.672C311.89 55.0747 310.079 54.776 307.951 54.776C305.077 54.776 302.837 55.3733 301.231 56.568C299.626 57.7253 298.823 59.3493 298.823 61.44C298.823 63.232 299.533 64.5947 300.951 65.528C302.37 66.424 304.647 67.2453 307.783 67.992C311.069 68.7387 313.719 69.5227 315.735 70.344C317.789 71.128 319.413 72.2293 320.607 73.648C321.839 75.0293 322.455 76.8213 322.455 79.024ZM364.123 86.64C364.31 87.088 364.403 87.4613 364.403 87.76C364.403 88.4693 364.105 89.0667 363.507 89.552C362.947 90.0373 362.313 90.28 361.603 90.28C361.118 90.28 360.651 90.1493 360.203 89.888C359.793 89.5893 359.475 89.1787 359.251 88.656L355.555 80.256H335.059L331.363 88.656C331.139 89.1787 330.803 89.5893 330.355 89.888C329.907 90.1493 329.441 90.28 328.955 90.28C328.209 90.28 327.537 90.0373 326.939 89.552C326.379 89.0667 326.099 88.4693 326.099 87.76C326.099 87.4613 326.193 87.088 326.379 86.64L342.171 52.088C342.433 51.4907 342.843 51.024 343.403 50.688C344.001 50.352 344.617 50.184 345.251 50.184C345.886 50.184 346.483 50.352 347.043 50.688C347.641 51.024 348.07 51.4907 348.331 52.088L364.123 86.64ZM337.131 75.664H353.539L345.307 57.128L337.131 75.664ZM405.248 86.64C405.435 87.088 405.528 87.4613 405.528 87.76C405.528 88.4693 405.23 89.0667 404.632 89.552C404.072 90.0373 403.438 90.28 402.728 90.28C402.243 90.28 401.776 90.1493 401.328 89.888C400.918 89.5893 400.6 89.1787 400.376 88.656L396.68 80.256H376.184L372.488 88.656C372.264 89.1787 371.928 89.5893 371.48 89.888C371.032 90.1493 370.566 90.28 370.08 90.28C369.334 90.28 368.662 90.0373 368.064 89.552C367.504 89.0667 367.224 88.4693 367.224 87.76C367.224 87.4613 367.318 87.088 367.504 86.64L383.296 52.088C383.558 51.4907 383.968 51.024 384.528 50.688C385.126 50.352 385.742 50.184 386.376 50.184C387.011 50.184 387.608 50.352 388.168 50.688C388.766 51.024 389.195 51.4907 389.456 52.088L405.248 86.64ZM378.256 75.664H394.664L386.432 57.128L378.256 75.664ZM419.103 90.28C418.245 90.28 417.535 90.0187 416.975 89.496C416.453 88.936 416.191 88.2267 416.191 87.368V55.336H404.991C403.199 55.336 402.303 54.5333 402.303 52.928C402.303 52.144 402.527 51.5467 402.975 51.136C403.461 50.7253 404.133 50.52 404.991 50.52H433.215C434.074 50.52 434.727 50.7253 435.175 51.136C435.661 51.5467 435.903 52.144 435.903 52.928C435.903 54.5333 435.007 55.336 433.215 55.336H422.015V87.368C422.015 88.2267 421.754 88.936 421.231 89.496C420.709 90.0187 419.999 90.28 419.103 90.28Z" fill="#696969"/>
</svg>
