<svg width="447" height="138" viewBox="0 0 447 138" fill="none" xmlns="http://www.w3.org/2000/svg">
<rect width="447" height="138" fill="#E5E5E5"/>
<rect width="447" height="138" fill="white"/>
<path d="M88.5144 90C87.6184 90 86.9091 89.7573 86.3864 89.272C85.9011 88.7493 85.6584 88.0587 85.6584 87.2V53.32C85.6584 52.4613 85.9011 51.7893 86.3864 51.304C86.9091 50.7813 87.6184 50.52 88.5144 50.52H109.122C109.981 50.52 110.634 50.7253 111.082 51.136C111.568 51.5467 111.81 52.1253 111.81 52.872C111.81 53.6187 111.568 54.1973 111.082 54.608C110.634 54.9813 109.981 55.168 109.122 55.168H91.3144V67.6H108.002C108.861 67.6 109.514 67.8053 109.962 68.216C110.448 68.6267 110.69 69.2053 110.69 69.952C110.69 70.6987 110.448 71.2773 109.962 71.688C109.514 72.0987 108.861 72.304 108.002 72.304H91.3144V85.352H109.122C110.914 85.352 111.81 86.1173 111.81 87.648C111.81 88.3947 111.568 88.9733 111.082 89.384C110.634 89.7947 109.981 90 109.122 90H88.5144ZM130.917 90.448C128.08 90.448 125.373 90.056 122.797 89.272C120.259 88.488 118.224 87.4053 116.693 86.024C115.984 85.4267 115.629 84.6613 115.629 83.728C115.629 83.056 115.816 82.496 116.189 82.048C116.563 81.5627 117.011 81.32 117.533 81.32C118.056 81.32 118.691 81.5627 119.437 82.048C122.76 84.512 126.549 85.744 130.805 85.744C133.792 85.744 136.088 85.184 137.693 84.064C139.299 82.944 140.101 81.3387 140.101 79.248C140.101 77.6053 139.355 76.3733 137.861 75.552C136.368 74.7307 133.979 73.9467 130.693 73.2C127.557 72.528 124.981 71.7627 122.965 70.904C120.949 70.0453 119.363 68.888 118.205 67.432C117.085 65.9387 116.525 64.0533 116.525 61.776C116.525 59.4987 117.141 57.4827 118.373 55.728C119.643 53.936 121.397 52.5547 123.637 51.584C125.877 50.576 128.435 50.072 131.309 50.072C133.96 50.072 136.405 50.4453 138.645 51.192C140.885 51.9387 142.789 53.04 144.357 54.496C145.104 55.1307 145.477 55.896 145.477 56.792C145.477 57.4267 145.272 57.9867 144.861 58.472C144.488 58.9573 144.04 59.2 143.517 59.2C143.032 59.2 142.416 58.9573 141.669 58.472C139.952 57.1653 138.328 56.232 136.797 55.672C135.304 55.0747 133.493 54.776 131.365 54.776C128.491 54.776 126.251 55.3733 124.645 56.568C123.04 57.7253 122.237 59.3493 122.237 61.44C122.237 63.232 122.947 64.5947 124.365 65.528C125.784 66.424 128.061 67.2453 131.197 67.992C134.483 68.7387 137.133 69.5227 139.149 70.344C141.203 71.128 142.827 72.2293 144.021 73.648C145.253 75.0293 145.869 76.8213 145.869 79.024C145.869 81.264 145.235 83.2613 143.965 85.016C142.733 86.7333 140.979 88.0773 138.701 89.048C136.461 89.9813 133.867 90.448 130.917 90.448ZM170.6 90.28C169.742 90.28 169.051 90.0187 168.528 89.496C168.006 88.9733 167.744 88.264 167.744 87.368V53.152C167.744 52.2933 168.006 51.6027 168.528 51.08C169.051 50.52 169.742 50.24 170.6 50.24C171.496 50.24 172.206 50.5013 172.728 51.024C173.251 51.5467 173.512 52.256 173.512 53.152V87.368C173.512 88.264 173.251 88.9733 172.728 89.496C172.243 90.0187 171.534 90.28 170.6 90.28ZM170.6 46.096C169.518 46.096 168.659 45.7973 168.024 45.2C167.39 44.6027 167.072 43.8187 167.072 42.848C167.072 41.84 167.39 41.056 168.024 40.496C168.659 39.8987 169.518 39.6 170.6 39.6C171.646 39.6 172.486 39.8987 173.12 40.496C173.792 41.056 174.128 41.84 174.128 42.848C174.128 43.8187 173.811 44.6027 173.176 45.2C172.542 45.7973 171.683 46.096 170.6 46.096ZM212.354 50.24C213.175 50.24 213.829 50.52 214.314 51.08C214.837 51.6027 215.098 52.2933 215.098 53.152V87.368C215.098 88.2267 214.837 88.936 214.314 89.496C213.791 90.0187 213.119 90.28 212.298 90.28C211.327 90.28 210.581 89.9067 210.058 89.16L188.106 60.208V87.368C188.106 88.2267 187.845 88.936 187.322 89.496C186.837 90.0187 186.183 90.28 185.362 90.28C184.541 90.28 183.887 90.0187 183.402 89.496C182.917 88.9733 182.674 88.264 182.674 87.368V53.152C182.674 52.2933 182.935 51.6027 183.458 51.08C183.981 50.52 184.653 50.24 185.474 50.24C186.445 50.24 187.191 50.6133 187.714 51.36L209.666 80.368V53.152C209.666 52.2933 209.909 51.6027 210.394 51.08C210.879 50.52 211.533 50.24 212.354 50.24ZM252.291 79.024C252.291 81.152 251.713 83.056 250.555 84.736C249.435 86.416 247.83 87.76 245.739 88.768C243.686 89.7387 241.297 90.28 238.571 90.392L238.291 92.464C238.814 92.352 239.281 92.296 239.691 92.296C240.849 92.296 241.819 92.632 242.603 93.304C243.425 93.976 243.835 94.928 243.835 96.16C243.835 97.5413 243.238 98.6613 242.043 99.52C240.849 100.416 239.15 100.864 236.947 100.864C235.491 100.864 234.203 100.659 233.083 100.248C232.411 99.9867 232.075 99.52 232.075 98.848C232.075 98.4 232.225 98.0267 232.523 97.728C232.859 97.4293 233.289 97.3547 233.811 97.504C234.931 97.8027 235.977 97.952 236.947 97.952C237.918 97.952 238.665 97.8027 239.187 97.504C239.71 97.2053 239.971 96.7573 239.971 96.16C239.971 95.712 239.822 95.3573 239.523 95.096C239.262 94.872 238.87 94.76 238.347 94.76C237.974 94.76 237.47 94.8347 236.835 94.984C236.201 95.1333 235.809 95.208 235.659 95.208C235.361 95.208 235.081 95.096 234.819 94.872C234.595 94.6853 234.502 94.424 234.539 94.088L234.987 90.336C232.561 90.1493 230.302 89.6827 228.211 88.936C226.121 88.152 224.422 87.1813 223.115 86.024C222.406 85.4267 222.051 84.6613 222.051 83.728C222.051 83.056 222.238 82.496 222.611 82.048C222.985 81.5627 223.433 81.32 223.955 81.32C224.478 81.32 225.113 81.5627 225.859 82.048C229.182 84.512 232.971 85.744 237.227 85.744C240.214 85.744 242.51 85.184 244.115 84.064C245.721 82.944 246.523 81.3387 246.523 79.248C246.523 77.6053 245.777 76.3733 244.283 75.552C242.79 74.7307 240.401 73.9467 237.115 73.2C233.979 72.528 231.403 71.7627 229.387 70.904C227.371 70.0453 225.785 68.888 224.627 67.432C223.507 65.9387 222.947 64.0533 222.947 61.776C222.947 59.4987 223.563 57.4827 224.795 55.728C226.065 53.936 227.819 52.5547 230.059 51.584C232.299 50.576 234.857 50.072 237.731 50.072C240.382 50.072 242.827 50.4453 245.067 51.192C247.307 51.9387 249.211 53.04 250.779 54.496C251.526 55.1307 251.899 55.896 251.899 56.792C251.899 57.4267 251.694 57.9867 251.283 58.472C250.91 58.9573 250.462 59.2 249.939 59.2C249.454 59.2 248.838 58.9573 248.091 58.472C246.374 57.1653 244.75 56.232 243.219 55.672C241.726 55.0747 239.915 54.776 237.787 54.776C234.913 54.776 232.673 55.3733 231.067 56.568C229.462 57.7253 228.659 59.3493 228.659 61.44C228.659 63.232 229.369 64.5947 230.787 65.528C232.206 66.424 234.483 67.2453 237.619 67.992C240.905 68.7387 243.555 69.5227 245.571 70.344C247.625 71.128 249.249 72.2293 250.443 73.648C251.675 75.0293 252.291 76.8213 252.291 79.024ZM293.959 86.64C294.146 87.088 294.239 87.4613 294.239 87.76C294.239 88.4693 293.94 89.0667 293.343 89.552C292.783 90.0373 292.148 90.28 291.439 90.28C290.954 90.28 290.487 90.1493 290.039 89.888C289.628 89.5893 289.311 89.1787 289.087 88.656L285.391 80.256H264.895L261.199 88.656C260.975 89.1787 260.639 89.5893 260.191 89.888C259.743 90.1493 259.276 90.28 258.791 90.28C258.044 90.28 257.372 90.0373 256.775 89.552C256.215 89.0667 255.935 88.4693 255.935 87.76C255.935 87.4613 256.028 87.088 256.215 86.64L272.007 52.088C272.268 51.4907 272.679 51.024 273.239 50.688C273.836 50.352 274.452 50.184 275.087 50.184C275.722 50.184 276.319 50.352 276.879 50.688C277.476 51.024 277.906 51.4907 278.167 52.088L293.959 86.64ZM266.967 75.664H283.375L275.143 57.128L266.967 75.664ZM335.084 86.64C335.271 87.088 335.364 87.4613 335.364 87.76C335.364 88.4693 335.065 89.0667 334.468 89.552C333.908 90.0373 333.273 90.28 332.564 90.28C332.079 90.28 331.612 90.1493 331.164 89.888C330.753 89.5893 330.436 89.1787 330.212 88.656L326.516 80.256H306.02L302.324 88.656C302.1 89.1787 301.764 89.5893 301.316 89.888C300.868 90.1493 300.401 90.28 299.916 90.28C299.169 90.28 298.497 90.0373 297.9 89.552C297.34 89.0667 297.06 88.4693 297.06 87.76C297.06 87.4613 297.153 87.088 297.34 86.64L313.132 52.088C313.393 51.4907 313.804 51.024 314.364 50.688C314.961 50.352 315.577 50.184 316.212 50.184C316.847 50.184 317.444 50.352 318.004 50.688C318.601 51.024 319.031 51.4907 319.292 52.088L335.084 86.64ZM308.092 75.664H324.5L316.268 57.128L308.092 75.664ZM348.939 90.28C348.081 90.28 347.371 90.0187 346.811 89.496C346.289 88.936 346.027 88.2267 346.027 87.368V55.336H334.827C333.035 55.336 332.139 54.5333 332.139 52.928C332.139 52.144 332.363 51.5467 332.811 51.136C333.297 50.7253 333.969 50.52 334.827 50.52H363.051C363.91 50.52 364.563 50.7253 365.011 51.136C365.497 51.5467 365.739 52.144 365.739 52.928C365.739 54.5333 364.843 55.336 363.051 55.336H351.851V87.368C351.851 88.2267 351.59 88.936 351.067 89.496C350.545 90.0187 349.835 90.28 348.939 90.28Z" fill="#696969"/>
</svg>
