<svg width="447" height="138" viewBox="0 0 447 138" fill="none" xmlns="http://www.w3.org/2000/svg">
<rect width="447" height="138" fill="#E5E5E5"/>
<rect width="447" height="138" fill="white"/>
<path d="M57.6361 90.448C54.7988 90.448 52.0921 90.056 49.5161 89.272C46.9774 88.488 44.9428 87.4053 43.4121 86.024C42.7028 85.4267 42.3481 84.6613 42.3481 83.728C42.3481 83.056 42.5348 82.496 42.9081 82.048C43.2814 81.5627 43.7294 81.32 44.2521 81.32C44.7748 81.32 45.4094 81.5627 46.1561 82.048C49.4788 84.512 53.2681 85.744 57.5241 85.744C60.5108 85.744 62.8068 85.184 64.4121 84.064C66.0174 82.944 66.8201 81.3387 66.8201 79.248C66.8201 77.6053 66.0734 76.3733 64.5801 75.552C63.0868 74.7307 60.6974 73.9467 57.4121 73.2C54.2761 72.528 51.7001 71.7627 49.6841 70.904C47.6681 70.0453 46.0814 68.888 44.9241 67.432C43.8041 65.9387 43.2441 64.0533 43.2441 61.776C43.2441 59.4987 43.8601 57.4827 45.0921 55.728C46.3614 53.936 48.1161 52.5547 50.3561 51.584C52.5961 50.576 55.1534 50.072 58.0281 50.072C60.6788 50.072 63.1241 50.4453 65.3641 51.192C67.6041 51.9387 69.5081 53.04 71.0761 54.496C71.8228 55.1307 72.1961 55.896 72.1961 56.792C72.1961 57.4267 71.9908 57.9867 71.5801 58.472C71.2068 58.9573 70.7588 59.2 70.2361 59.2C69.7508 59.2 69.1348 58.9573 68.3881 58.472C66.6708 57.1653 65.0468 56.232 63.5161 55.672C62.0228 55.0747 60.2121 54.776 58.0841 54.776C55.2094 54.776 52.9694 55.3733 51.3641 56.568C49.7588 57.7253 48.9561 59.3493 48.9561 61.44C48.9561 63.232 49.6654 64.5947 51.0841 65.528C52.5028 66.424 54.7801 67.2453 57.9161 67.992C61.2014 68.7387 63.8521 69.5227 65.8681 70.344C67.9214 71.128 69.5454 72.2293 70.7401 73.648C71.9721 75.0293 72.5881 76.8213 72.5881 79.024C72.5881 81.264 71.9534 83.2613 70.6841 85.016C69.4521 86.7333 67.6974 88.0773 65.4201 89.048C63.1801 89.9813 60.5854 90.448 57.6361 90.448ZM96.6655 90.448C92.9321 90.448 89.6841 89.6267 86.9215 87.984C84.1961 86.3413 82.0868 84.008 80.5935 80.984C79.1001 77.96 78.3535 74.3947 78.3535 70.288C78.3535 66.144 79.0815 62.56 80.5375 59.536C82.0308 56.4747 84.1588 54.1413 86.9215 52.536C89.6841 50.8933 92.9321 50.072 96.6655 50.072C100.436 50.072 103.703 50.8933 106.465 52.536C109.228 54.1413 111.337 56.4747 112.793 59.536C114.287 62.56 115.033 66.1253 115.033 70.232C115.033 74.3387 114.287 77.9227 112.793 80.984C111.337 84.008 109.228 86.3413 106.465 87.984C103.703 89.6267 100.436 90.448 96.6655 90.448ZM96.6655 85.744C100.623 85.744 103.703 84.4 105.905 81.712C108.108 79.024 109.209 75.1973 109.209 70.232C109.209 65.2667 108.108 61.4587 105.905 58.808C103.74 56.12 100.66 54.776 96.6655 54.776C92.7455 54.776 89.6841 56.12 87.4815 58.808C85.3161 61.4587 84.2335 65.2667 84.2335 70.232C84.2335 75.1973 85.3161 79.024 87.4815 81.712C89.6841 84.4 92.7455 85.744 96.6655 85.744ZM125.701 90C124.842 90 124.151 89.7573 123.629 89.272C123.143 88.7867 122.901 88.1333 122.901 87.312V53.152C122.901 52.2933 123.162 51.6027 123.685 51.08C124.207 50.52 124.898 50.24 125.757 50.24C126.653 50.24 127.362 50.5013 127.885 51.024C128.407 51.5467 128.669 52.256 128.669 53.152V85.184H145.693C146.551 85.184 147.205 85.3893 147.653 85.8C148.138 86.2107 148.381 86.808 148.381 87.592C148.381 88.376 148.138 88.9733 147.653 89.384C147.205 89.7947 146.551 90 145.693 90H125.701ZM188.582 50.24C189.403 50.24 190.075 50.52 190.598 51.08C191.12 51.6027 191.382 52.2933 191.382 53.152V87.536C191.382 88.3947 191.139 89.0667 190.654 89.552C190.206 90.0373 189.571 90.28 188.75 90.28C187.966 90.28 187.35 90.0373 186.902 89.552C186.454 89.0667 186.23 88.3947 186.23 87.536V61.496L175.254 82.384C174.544 83.6907 173.63 84.344 172.51 84.344C171.39 84.344 170.475 83.6907 169.766 82.384L158.734 61.72V87.536C158.734 88.3947 158.51 89.0667 158.062 89.552C157.614 90.0373 156.979 90.28 156.158 90.28C155.374 90.28 154.739 90.0373 154.254 89.552C153.806 89.0293 153.582 88.3573 153.582 87.536V53.152C153.582 52.2933 153.843 51.6027 154.366 51.08C154.888 50.52 155.56 50.24 156.382 50.24C157.539 50.24 158.472 50.912 159.182 52.256L172.566 77.848L185.838 52.256C186.547 50.912 187.462 50.24 188.582 50.24ZM235.444 86.64C235.63 87.088 235.724 87.4613 235.724 87.76C235.724 88.4693 235.425 89.0667 234.828 89.552C234.268 90.0373 233.633 90.28 232.924 90.28C232.438 90.28 231.972 90.1493 231.524 89.888C231.113 89.5893 230.796 89.1787 230.572 88.656L226.876 80.256H206.38L202.684 88.656C202.46 89.1787 202.124 89.5893 201.676 89.888C201.228 90.1493 200.761 90.28 200.276 90.28C199.529 90.28 198.857 90.0373 198.26 89.552C197.7 89.0667 197.42 88.4693 197.42 87.76C197.42 87.4613 197.513 87.088 197.7 86.64L213.492 52.088C213.753 51.4907 214.164 51.024 214.724 50.688C215.321 50.352 215.937 50.184 216.572 50.184C217.206 50.184 217.804 50.352 218.364 50.688C218.961 51.024 219.39 51.4907 219.652 52.088L235.444 86.64ZM208.452 75.664H224.86L216.628 57.128L208.452 75.664ZM265.774 85.296C267.566 85.296 268.462 86.08 268.462 87.648C268.462 89.216 267.566 90 265.774 90H241.246C240.462 90 239.827 89.776 239.342 89.328C238.894 88.88 238.67 88.3013 238.67 87.592C238.67 86.8453 238.912 86.1173 239.398 85.408L260.734 55.224H241.414C239.622 55.224 238.726 54.44 238.726 52.872C238.726 51.304 239.622 50.52 241.414 50.52H265.214C266.035 50.52 266.67 50.7627 267.118 51.248C267.603 51.696 267.846 52.2747 267.846 52.984C267.846 53.7307 267.603 54.4213 267.118 55.056L245.726 85.296H265.774ZM313.956 51.248C314.479 50.576 315.132 50.24 315.916 50.24C316.588 50.24 317.185 50.52 317.708 51.08C318.268 51.6027 318.548 52.2187 318.548 52.928C318.548 53.6 318.324 54.1787 317.876 54.664L304.66 71.128V87.368C304.66 88.3013 304.38 89.0293 303.82 89.552C303.297 90.0373 302.607 90.28 301.748 90.28C300.889 90.28 300.199 90.0373 299.676 89.552C299.153 89.0293 298.892 88.3013 298.892 87.368V71.128L285.676 54.664C285.228 54.1787 285.004 53.5813 285.004 52.872C285.004 52.1627 285.265 51.5467 285.788 51.024C286.311 50.5013 286.927 50.24 287.636 50.24C288.383 50.24 289.036 50.576 289.596 51.248L301.804 66.592L313.956 51.248ZM353.842 86.64C354.029 87.088 354.122 87.4613 354.122 87.76C354.122 88.4693 353.823 89.0667 353.226 89.552C352.666 90.0373 352.031 90.28 351.322 90.28C350.837 90.28 350.37 90.1493 349.922 89.888C349.511 89.5893 349.194 89.1787 348.97 88.656L345.274 80.256H324.778L321.082 88.656C320.858 89.1787 320.522 89.5893 320.074 89.888C319.626 90.1493 319.159 90.28 318.674 90.28C317.927 90.28 317.255 90.0373 316.658 89.552C316.098 89.0667 315.818 88.4693 315.818 87.76C315.818 87.4613 315.911 87.088 316.098 86.64L331.89 52.088C332.151 51.4907 332.562 51.024 333.122 50.688C333.719 50.352 334.335 50.184 334.97 50.184C335.605 50.184 336.202 50.352 336.762 50.688C337.359 51.024 337.789 51.4907 338.05 52.088L353.842 86.64ZM326.85 75.664H343.258L335.026 57.128L326.85 75.664ZM362.991 90.28C362.132 90.28 361.442 90.0187 360.919 89.496C360.396 88.9733 360.135 88.264 360.135 87.368V53.32C360.135 52.4613 360.378 51.7893 360.863 51.304C361.386 50.7813 362.095 50.52 362.991 50.52H376.487C380.668 50.52 383.916 51.5467 386.231 53.6C388.546 55.6533 389.703 58.5653 389.703 62.336C389.703 66.0693 388.546 68.9813 386.231 71.072C383.916 73.1627 380.668 74.208 376.487 74.208H365.903V87.368C365.903 88.264 365.642 88.9733 365.119 89.496C364.634 90.0187 363.924 90.28 362.991 90.28ZM375.871 69.56C381.396 69.56 384.159 67.152 384.159 62.336C384.159 57.5573 381.396 55.168 375.871 55.168H365.903V69.56H375.871ZM399.522 90.28C398.664 90.28 397.973 90.0187 397.45 89.496C396.928 88.9733 396.666 88.264 396.666 87.368V53.152C396.666 52.2933 396.928 51.6027 397.45 51.08C397.973 50.52 398.664 50.24 399.522 50.24C400.418 50.24 401.128 50.5013 401.65 51.024C402.173 51.5467 402.434 52.256 402.434 53.152V87.368C402.434 88.264 402.173 88.9733 401.65 89.496C401.165 90.0187 400.456 90.28 399.522 90.28Z" fill="#696969"/>
</svg>
