<?xml version="1.0" encoding="UTF-8"?>
<svg width="142px" height="40px" viewBox="0 0 142 40" version="1.1" xmlns="http://www.w3.org/2000/svg" xmlns:xlink="http://www.w3.org/1999/xlink">
    <!-- Generator: Sketch 52.4 (67378) - http://www.bohemiancoding.com/sketch -->
    <title>logo</title>
    <desc>Created with Sketch.</desc>
    <g id="Page-1" stroke="none" stroke-width="1" fill="none" fill-rule="evenodd">
        <g id="home" transform="translate(-354.000000, -24.000000)" fill="#4D4E4C">
            <g id="#Header">
                <g id="menu">
                    <g id="logo" transform="translate(354.000000, 24.000000)">
                        <polygon id="Fill-1" points="115.026965 20.2393014 92.4242905 26.3842839 92.4242905 29.3531278 115.026965 29.3531278 137.628272 29.3531278 137.628272 26.3842839"></polygon>
                        <polygon id="Fill-2" points="114.934332 13.8984705 88.16753 22.0688517 92.0027899 25.6715303 115.026965 19.3371245 138.054362 25.6715303 141.8855 22.0656302 115.028351 13.8700525"></polygon>
                        <polygon id="Fill-3" points="141.976297 11.0874104 136.877921 9.3968185 136.877921 12.3592553 132.86706 11.0622139 132.86706 8.23691787 125.783222 5.76388619 125.783222 8.72493714 120.610103 6.92058327 120.610103 4.48102687 115.026965 2.56755437 109.421331 4.48102687 109.44291 6.92058327 104.218425 8.72493714 104.218425 5.76388619 97.099276 8.23691787 97.099276 11.0622139 93.173273 12.3592553 93.173273 9.3968185 87.7369047 11.0874104 87.7369047 20.7511493 115.026965 12.3592553 141.976297 20.7511493"></polygon>
                        <polygon id="Fill-4" points="94.8477752 39.902054 94.0125848 39.902054 94.5157039 39.0343062 93.6970532 39.0343062 92.6843179 38.4481288 92.6843179 33.4062289 93.6970532 32.8200515 96.1778778 32.8200515 97.1923949 33.4062289 97.1923949 34.6578626 95.9668755 34.6578626 95.9668755 33.8708335 93.9089194 33.8708335 93.9089194 37.9853599 95.9668755 37.9853599 95.9668755 37.1983308 97.1923949 37.1983308 97.1923949 38.4481288 96.1778778 39.0343062 95.3293693 39.0343062 95.1192849 39.4071957 95.239472 39.2824013"></polygon>
                        <polygon id="Fill-5" points="99.8222925 36.3653901 99.8222925 37.9408702 102.263685 37.9408702 102.263685 38.993452 98.5949374 38.993452 98.5949374 32.8627054 102.263685 32.8627054 102.263685 33.9116517 99.8222925 33.9116517 99.8222925 35.3164978 101.738519 35.3164978 101.738519 36.3653901"></polygon>
                        <polygon id="Fill-6" points="103.402978 38.993452 103.402978 32.8627054 104.62758 32.8627054 104.62758 37.9408702 106.721747 37.9408702 106.721747 38.993452"></polygon>
                        <polygon id="Fill-7" points="107.682595 32.8627054 108.909483 32.8627054 108.909483 38.993452 107.682595 38.993452"></polygon>
                        <polygon id="Fill-8" points="110.399673 38.993452 110.399673 32.8627054 111.622439 32.8627054 111.622439 35.6182613 111.642128 35.6182613 113.92849 32.8627054 115.380111 32.8627054 112.96397 35.7352269 115.653511 38.993452 114.18076 38.993452 112.229223 36.6135392 111.622439 37.3216854 111.622439 38.993452"></polygon>
                        <polygon id="Fill-9" points="118.715402 38.993452 118.715402 32.8627054 119.941839 32.8627054 119.941839 35.6182613 119.961582 35.6182613 122.246558 32.8627054 123.699098 32.8627054 121.282956 35.7352269 123.971075 38.993452 122.499765 38.993452 120.546788 36.6135392 119.941839 37.3216854 119.941839 38.993452"></polygon>
                        <path d="M127.593029,32.8627054 L129.785822,38.993452 L128.573621,38.993452 L128.110852,37.672582 L125.818065,37.672582 L125.352093,38.993452 L124.145399,38.993452 L126.33497,32.8627054 L127.593029,32.8627054 Z M126.954155,34.4032885 L126.186815,36.6185785 L127.732456,36.6185785 L126.973844,34.4032885 L126.954155,34.4032885 Z" id="Fill-10"></path>
                        <path d="M130.660499,38.993452 L130.660499,32.8627054 L133.891674,32.8627054 L134.907559,33.4502507 L134.907559,36.1823919 L133.891674,36.7685693 L131.885101,36.7685693 L131.885101,38.993452 L130.660499,38.993452 Z M131.885101,35.7177873 L133.68114,35.7177873 L133.68114,33.9134875 L131.885101,33.9134875 L131.885101,35.7177873 Z" id="Fill-11"></path>
                        <polygon id="Fill-12" points="136.13216 32.8627054 137.35768 32.8627054 137.35768 38.993452 136.13216 38.993452"></polygon>
                        <polygon id="Fill-13" points="107.660603 31.5651962 108.938872 31.5651962 108.938872 32.4265189 107.660603 32.4265189"></polygon>
                        <path d="M55.4360441,11.5882798 C54.5008598,11.5882798 53.1400535,11.6231229 52.1470613,11.6483374 C51.6255848,11.6611876 51.2150986,11.6703663 51.0655757,11.6703663 L50.9367138,11.6671627 C48.7374956,11.6024619 47.3720819,11.5882798 46.6130028,11.5882798 C46.1942738,11.5882798 45.7681838,11.6373229 45.7681838,12.0084127 C45.7681838,12.2170573 45.8915384,12.4684279 46.4855267,12.4684279 C46.9202915,12.4684279 47.5390084,12.5142854 47.8201648,12.5931503 C48.9654335,12.9201823 49.2507113,13.2742824 49.3332657,14.4717797 L49.3346335,14.547909 C49.3763696,15.683981 49.4176378,16.7535523 49.4176378,22.1036948 L49.4176378,26.6420616 C49.4176378,30.5745077 49.2616897,33.5025513 47.2780631,35.3637412 C45.5874712,37.0043181 43.4501463,37.253835 42.3269245,37.253835 C40.9941042,37.253835 39.2576728,37.0909939 37.6688565,35.8251242 C35.9347108,34.4523676 34.8587143,32.5260449 34.8587143,27.150706 L34.8587143,22.1036948 C34.8587143,16.6049833 34.8587143,15.6175163 34.9440223,14.4717797 C35.0284484,13.192142 35.329294,12.7541736 36.2333067,12.5982076 L36.2966218,12.5835217 C36.7158188,12.5078603 36.9263171,12.4684279 37.3226033,12.4684279 C37.9096626,12.4684279 37.9972563,12.1808464 37.9972563,12.0084127 C37.9972563,11.6373229 37.5716162,11.5882798 37.1102332,11.5882798 C36.3676938,11.5882798 35.2692545,11.6121085 34.2982553,11.6373229 C33.4956223,11.6529267 32.7406646,11.6703663 32.3164284,11.6703663 C31.8467665,11.6703663 31.1271739,11.657984 30.2919835,11.6405265 C29.15269,11.6121085 27.8620198,11.5882798 26.7163371,11.5882798 C26.2549541,11.5882798 25.8316177,11.6373229 25.8316177,12.0084127 C25.8316177,12.2170573 25.9540545,12.4684279 26.5479888,12.4684279 C27.0222401,12.4684279 27.668979,12.5110639 27.967071,12.5931503 C29.0967179,12.9169607 29.4366,13.2013207 29.5205222,14.4750013 C29.5801478,15.2634162 29.57878,16.0045698 29.5709691,18.1914418 C29.5677475,19.1646907 29.5627082,20.4241354 29.5627082,22.1036948 L29.5627082,27.4065939 C29.5627082,31.9366999 30.6515549,34.9880981 32.9860601,37.0116611 C35.4976603,39.2113473 38.8902365,39.4924857 41.5650918,39.4924857 C43.8152248,39.4924857 46.7519792,39.1971113 49.5061493,36.8836631 C52.6630487,34.2831554 53.1001531,30.1007245 53.1001531,25.9637011 L53.1001531,22.1036948 C53.1001531,16.7535523 53.1400535,15.683981 53.1804038,14.547909 L53.1836253,14.4717797 C53.2730548,13.1540773 53.5496218,12.75142 54.4756094,12.5982076 L54.5380066,12.5835217 C54.9572035,12.5078603 55.1659202,12.4684279 55.5640061,12.4684279 C56.1543049,12.4684279 56.2804132,12.2170573 56.2804132,12.0084127 C56.2804132,11.6373229 55.8534053,11.5882798 55.4360441,11.5882798" id="Fill-14"></path>
                        <path d="M88.2271736,38.0991399 C87.9377564,38.0991399 87.7268081,38.0991399 87.351633,38.0151638 L87.244746,37.9963924 C86.6301506,37.8683764 85.3505128,37.6060634 83.4054008,35.6627331 C81.2763366,33.5341729 78.8262157,30.5194715 75.7262063,26.7034869 L75.2749199,26.1457815 C78.8798842,23.2429883 80.4172636,20.852511 80.4172636,18.1611521 C80.4172636,15.6175163 78.7422935,13.8003123 77.7502373,13.1270451 C75.6812667,11.7607316 72.852803,11.5882798 70.6214413,11.5882798 C70.0614322,11.5882798 68.9891252,11.6056834 67.854871,11.6263445 C66.6765949,11.6497052 65.4634758,11.6703663 64.8117516,11.6703663 C64.5168271,11.6703663 63.992111,11.6611876 63.3307942,11.643748 C62.2579653,11.6199194 60.9196558,11.5882798 59.7198548,11.5882798 C59.2616213,11.5882798 58.7905916,11.6373229 58.7905916,12.0084127 C58.7905916,12.2977759 59.0593838,12.4684279 59.5056309,12.4684279 C60.0183967,12.4684279 60.669221,12.5078603 60.9705706,12.5931503 C62.1378142,12.9284431 62.4405496,13.2948895 62.5253896,14.4717797 C62.56529,15.6142948 62.56529,16.6049833 62.56529,22.102309 L62.56529,28.4670226 C62.56529,31.7647341 62.56529,34.6133909 62.3956099,36.1333128 C62.2676119,37.2079774 62.0635387,37.8161478 61.3553924,37.9757313 C61.0182639,38.0577997 60.5926418,38.0991399 60.0596649,38.0991399 C59.5625209,38.0991399 59.384562,38.3407919 59.384562,38.5637445 C59.384562,38.7737749 59.5239883,39.0232918 60.1849093,39.0232918 C61.0618357,39.0232918 62.259801,38.97927 63.2202357,38.9457947 C63.8935569,38.92238 64.4732553,38.8971835 64.7672619,38.8971835 C64.9520958,38.8971835 65.4355257,38.9141191 66.0473676,38.9320266 C67.2788081,38.9696233 69.1409518,39.0232918 70.581091,39.0232918 C71.1154357,39.0232918 71.4240923,38.8558613 71.4240923,38.5637445 C71.4240923,38.3407919 71.2158976,38.0991399 70.8760155,38.0991399 C70.396257,38.0991399 69.5991313,38.0545962 69.0652365,37.9757313 C67.9677331,37.8097227 67.8159065,37.1698588 67.691166,36.1333128 C67.5017427,34.4473283 67.4796958,31.1483029 67.4796958,28.4670226 L67.4796958,27.9565605 L67.6930018,27.7432545 L71.0475313,27.8253409 C71.2883374,27.8253409 71.4740892,27.8648274 71.6635125,28.0514971 C71.8676218,28.293203 72.2895904,28.9059267 72.8266347,29.6801417 C73.5082167,30.6598157 74.3544215,31.8811957 75.1808831,32.9686565 C77.3943374,35.9517004 78.7244401,37.5079052 80.2989663,38.2949343 C81.3327587,38.8352542 82.4073693,39.0232918 84.4084355,39.0232918 L87.9717356,39.0232918 C88.3675179,39.0232918 88.7720289,38.9696233 88.7720289,38.5637445 C88.7720289,38.3407919 88.5555554,38.0991399 88.2271736,38.0991399 Z M75.5468796,19.9389057 C75.5468796,22.9141387 74.2512241,24.4533539 73.1614596,25.2197759 C72.5280928,25.6843805 72.0193944,25.7995283 70.581091,25.7995283 C69.9238416,25.7995283 68.6868578,25.7536707 67.7718667,25.4647034 C67.5521896,25.3573665 67.4796958,25.2592084 67.4796958,24.9037764 L67.4796958,14.1686484 C67.4796958,13.9094849 67.5430109,13.8113267 67.7562629,13.7388869 C68.1021022,13.6645574 68.9400461,13.6154783 69.942217,13.6154783 C72.5280928,13.6154783 75.5468796,15.2698413 75.5468796,19.9389057 Z" id="Fill-15"></path>
                        <path d="M14.4479151,15.6936276 L12.3248081,14.5130659 C7.75073435,11.9675404 6.88385044,10.2531379 6.88385044,7.98234373 C6.88385044,4.51403422 10.401239,2.69688416 13.8764236,2.69688416 C17.0365445,2.69688416 18.7289541,3.96413967 19.5935343,5.02771787 C20.6883022,6.29635919 20.9290902,7.80393485 20.9290902,8.27498251 C20.9290902,8.91936375 21.1345853,9.24184233 21.5409321,9.24184233 C21.8743711,9.24184233 22.2706753,8.9524251 22.2706753,7.5700218 C22.2706753,4.75897972 22.3601047,3.25644335 22.4128553,2.35426641 C22.4343802,2.00020228 22.4472304,1.74426033 22.4472304,1.55483701 C22.4472304,1.08380735 22.0605909,0.922388086 21.6799085,0.826515589 C20.9341475,0.633420786 18.2015024,0 14.2887995,0 C6.65866616,0 1.11818251,4.27416401 1.11818251,10.1632406 C1.11818251,14.8873232 3.48758479,18.20431 9.29453891,21.612508 L12.3019153,23.380579 C16.9998657,26.148985 17.3924804,28.3592357 17.3924804,30.3850844 C17.3924804,34.087307 14.4690261,36.6740826 10.281088,36.6740826 C8.7088654,36.6740826 3.47244892,36.3199825 2.10244588,31.7756946 C1.82771458,30.949233 1.63461977,29.8933937 1.63461977,29.209562 C1.63461977,28.605999 1.43101445,28.3009599 1.02461369,28.3009599 C0.572877313,28.3009599 0.294924461,28.8302654 0.294924461,29.6723308 L0.285295817,29.8067179 C0.216059569,30.7845561 0,33.7570715 0,36.3401937 C0,37.4624976 0.166980482,37.743654 1.04849632,38.1229506 C2.98446565,38.9902844 5.83128669,39.426435 9.51466591,39.426435 C12.0042193,39.426435 15.6192981,39.2145508 18.2272028,37.3483217 C21.8372423,34.811075 23.4502651,31.8986532 23.4502651,27.9074814 C23.4502651,22.8288487 20.7580423,19.1757052 14.4479151,15.6936276" id="Fill-16"></path>
                    </g>
                </g>
            </g>
        </g>
    </g>
</svg>