<svg width="447" height="138" viewBox="0 0 447 138" fill="none" xmlns="http://www.w3.org/2000/svg">
<rect width="447" height="138" fill="#E5E5E5"/>
<rect width="447" height="138" fill="white"/>
<path d="M101.866 17.752C102.351 16.7067 103.154 16.184 104.274 16.184C105.02 16.184 105.692 16.4453 106.29 16.968C106.887 17.4533 107.186 18.0507 107.186 18.76C107.186 19.0213 107.092 19.376 106.906 19.824L91.1136 54.432C90.8523 55.0293 90.4416 55.496 89.8816 55.832C89.3216 56.168 88.7243 56.336 88.0896 56.336C87.4549 56.336 86.8389 56.168 86.2416 55.832C85.6816 55.496 85.2709 55.0293 85.0096 54.432L69.2736 19.824C69.0869 19.376 68.9936 19.0213 68.9936 18.76C68.9936 18.0133 69.2923 17.3973 69.8896 16.912C70.5243 16.4267 71.2149 16.184 71.9616 16.184C73.1189 16.184 73.9403 16.7067 74.4256 17.752L88.1456 48.496L101.866 17.752ZM129.839 49.112C130.362 49.112 130.791 49.3173 131.127 49.728C131.463 50.1387 131.631 50.6613 131.631 51.296C131.631 52.3787 130.959 53.2933 129.615 54.04C128.309 54.7867 126.871 55.3653 125.303 55.776C123.773 56.1867 122.298 56.392 120.879 56.392C116.549 56.392 113.133 55.1413 110.631 52.64C108.13 50.1013 106.879 46.648 106.879 42.28C106.879 39.48 107.421 36.9973 108.503 34.832C109.623 32.6667 111.173 30.9867 113.151 29.792C115.167 28.5973 117.445 28 119.983 28C123.642 28 126.535 29.176 128.663 31.528C130.791 33.88 131.855 37.0533 131.855 41.048C131.855 42.5413 131.183 43.288 129.839 43.288H112.535C112.909 49.0747 115.69 51.968 120.879 51.968C122.261 51.968 123.455 51.7813 124.463 51.408C125.471 51.0347 126.535 50.5493 127.655 49.952C127.767 49.8773 128.066 49.728 128.551 49.504C129.074 49.2427 129.503 49.112 129.839 49.112ZM120.095 32.144C117.93 32.144 116.194 32.8347 114.887 34.216C113.581 35.5973 112.797 37.5387 112.535 40.04H126.983C126.871 37.5013 126.218 35.56 125.023 34.216C123.866 32.8347 122.223 32.144 120.095 32.144ZM152.872 28C159.368 28 162.616 31.6773 162.616 39.032V53.592C162.616 54.4133 162.355 55.0667 161.832 55.552C161.309 56.0373 160.619 56.28 159.76 56.28C158.901 56.28 158.211 56.0373 157.688 55.552C157.203 55.0667 156.96 54.4133 156.96 53.592V39.088C156.96 36.848 156.493 35.2053 155.56 34.16C154.664 33.1147 153.245 32.592 151.304 32.592C149.027 32.592 147.197 33.3013 145.816 34.72C144.435 36.1387 143.744 38.0427 143.744 40.432V53.592C143.744 54.4133 143.483 55.0667 142.96 55.552C142.475 56.0373 141.803 56.28 140.944 56.28C140.085 56.28 139.395 56.0373 138.872 55.552C138.349 55.0667 138.088 54.4133 138.088 53.592V18.928C138.088 18.1067 138.349 17.4533 138.872 16.968C139.432 16.4827 140.141 16.24 141 16.24C141.821 16.24 142.475 16.4827 142.96 16.968C143.483 17.416 143.744 18.032 143.744 18.816V32.816C144.677 31.248 145.928 30.0533 147.496 29.232C149.064 28.4107 150.856 28 152.872 28ZM185.026 28C187.415 28 189.524 28.5787 191.354 29.736C193.183 30.8933 194.602 32.536 195.61 34.664C196.655 36.792 197.178 39.2747 197.178 42.112C197.178 44.912 196.655 47.3947 195.61 49.56C194.602 51.7253 193.164 53.4053 191.298 54.6C189.468 55.7947 187.378 56.392 185.026 56.392C182.972 56.392 181.162 55.9627 179.594 55.104C178.026 54.208 176.831 52.9387 176.01 51.296V53.536C176.01 54.3573 175.748 55.0293 175.226 55.552C174.74 56.0373 174.068 56.28 173.21 56.28C172.351 56.28 171.66 56.0373 171.138 55.552C170.615 55.0293 170.354 54.3573 170.354 53.536V18.928C170.354 18.1067 170.615 17.4533 171.138 16.968C171.698 16.4827 172.407 16.24 173.266 16.24C174.087 16.24 174.74 16.4827 175.226 16.968C175.748 17.416 176.01 18.032 176.01 18.816V33.152C176.831 31.5093 178.026 30.24 179.594 29.344C181.162 28.448 182.972 28 185.026 28ZM183.682 51.912C186.108 51.912 187.994 51.0533 189.338 49.336C190.719 47.6187 191.41 45.2107 191.41 42.112C191.41 39.0507 190.738 36.6987 189.394 35.056C188.05 33.376 186.146 32.536 183.682 32.536C181.218 32.536 179.314 33.376 177.97 35.056C176.663 36.736 176.01 39.1253 176.01 42.224C176.01 45.3227 176.663 47.712 177.97 49.392C179.314 51.072 181.218 51.912 183.682 51.912ZM206.296 56.28C205.474 56.28 204.784 56.056 204.224 55.608C203.701 55.16 203.44 54.488 203.44 53.592V30.856C203.44 29.96 203.701 29.288 204.224 28.84C204.784 28.3547 205.474 28.112 206.296 28.112C207.117 28.112 207.789 28.3547 208.312 28.84C208.834 29.288 209.096 29.96 209.096 30.856V53.592C209.096 54.488 208.834 55.16 208.312 55.608C207.789 56.056 207.117 56.28 206.296 56.28ZM206.296 22.624C205.213 22.624 204.354 22.3253 203.72 21.728C203.085 21.1307 202.768 20.3467 202.768 19.376C202.768 18.4053 203.085 17.64 203.72 17.08C204.354 16.4827 205.213 16.184 206.296 16.184C207.341 16.184 208.181 16.4827 208.816 17.08C209.488 17.64 209.824 18.4053 209.824 19.376C209.824 20.3467 209.506 21.1307 208.872 21.728C208.237 22.3253 207.378 22.624 206.296 22.624ZM244.76 56.28C243.901 56.28 243.192 56.0187 242.632 55.496C242.109 54.936 241.848 54.2267 241.848 53.368V21.336H230.648C228.856 21.336 227.96 20.5333 227.96 18.928C227.96 18.144 228.184 17.5467 228.632 17.136C229.117 16.7253 229.789 16.52 230.648 16.52H258.872C259.73 16.52 260.384 16.7253 260.832 17.136C261.317 17.5467 261.56 18.144 261.56 18.928C261.56 20.5333 260.664 21.336 258.872 21.336H247.672V53.368C247.672 54.2267 247.41 54.936 246.888 55.496C246.365 56.0187 245.656 56.28 244.76 56.28ZM282.746 49.112C283.268 49.112 283.698 49.3173 284.034 49.728C284.37 50.1387 284.538 50.6613 284.538 51.296C284.538 52.3787 283.866 53.2933 282.522 54.04C281.215 54.7867 279.778 55.3653 278.21 55.776C276.679 56.1867 275.204 56.392 273.786 56.392C269.455 56.392 266.039 55.1413 263.538 52.64C261.036 50.1013 259.786 46.648 259.786 42.28C259.786 39.48 260.327 36.9973 261.41 34.832C262.53 32.6667 264.079 30.9867 266.058 29.792C268.074 28.5973 270.351 28 272.89 28C276.548 28 279.442 29.176 281.57 31.528C283.698 33.88 284.762 37.0533 284.762 41.048C284.762 42.5413 284.09 43.288 282.746 43.288H265.442C265.815 49.0747 268.596 51.968 273.786 51.968C275.167 51.968 276.362 51.7813 277.37 51.408C278.378 51.0347 279.442 50.5493 280.562 49.952C280.674 49.8773 280.972 49.728 281.458 49.504C281.98 49.2427 282.41 49.112 282.746 49.112ZM273.002 32.144C270.836 32.144 269.1 32.8347 267.794 34.216C266.487 35.5973 265.703 37.5387 265.442 40.04H279.89C279.778 37.5013 279.124 35.56 277.93 34.216C276.772 32.8347 275.13 32.144 273.002 32.144ZM322.354 28C328.477 28 331.538 31.6773 331.538 39.032V53.592C331.538 54.4507 331.277 55.1227 330.754 55.608C330.232 56.056 329.541 56.28 328.682 56.28C327.861 56.28 327.189 56.056 326.666 55.608C326.144 55.1227 325.882 54.4507 325.882 53.592V39.088C325.882 36.8107 325.472 35.168 324.65 34.16C323.829 33.1147 322.541 32.592 320.786 32.592C318.733 32.592 317.109 33.3013 315.914 34.72C314.72 36.1013 314.122 38.0053 314.122 40.432V53.592C314.122 54.4507 313.861 55.1227 313.338 55.608C312.816 56.056 312.125 56.28 311.266 56.28C310.445 56.28 309.773 56.056 309.25 55.608C308.728 55.1227 308.466 54.4507 308.466 53.592V39.088C308.466 36.8107 308.056 35.168 307.234 34.16C306.413 33.1147 305.125 32.592 303.37 32.592C301.317 32.592 299.674 33.3013 298.442 34.72C297.248 36.1013 296.65 38.0053 296.65 40.432V53.592C296.65 54.4507 296.389 55.1227 295.866 55.608C295.344 56.056 294.672 56.28 293.85 56.28C293.029 56.28 292.338 56.056 291.778 55.608C291.256 55.1227 290.994 54.4507 290.994 53.592V30.8C290.994 29.9787 291.274 29.3253 291.834 28.84C292.394 28.3547 293.066 28.112 293.85 28.112C294.634 28.112 295.269 28.3547 295.754 28.84C296.277 29.288 296.538 29.9227 296.538 30.744V32.816C297.36 31.248 298.498 30.0533 299.954 29.232C301.41 28.4107 303.09 28 304.994 28C307.085 28 308.802 28.4293 310.146 29.288C311.528 30.1467 312.554 31.472 313.226 33.264C314.048 31.6587 315.261 30.3893 316.866 29.456C318.472 28.4853 320.301 28 322.354 28ZM360.675 49.112C361.198 49.112 361.627 49.3173 361.963 49.728C362.299 50.1387 362.467 50.6613 362.467 51.296C362.467 52.3787 361.795 53.2933 360.451 54.04C359.145 54.7867 357.707 55.3653 356.139 55.776C354.609 56.1867 353.134 56.392 351.715 56.392C347.385 56.392 343.969 55.1413 341.467 52.64C338.966 50.1013 337.715 46.648 337.715 42.28C337.715 39.48 338.257 36.9973 339.339 34.832C340.459 32.6667 342.009 30.9867 343.987 29.792C346.003 28.5973 348.281 28 350.819 28C354.478 28 357.371 29.176 359.499 31.528C361.627 33.88 362.691 37.0533 362.691 41.048C362.691 42.5413 362.019 43.288 360.675 43.288H343.371C343.745 49.0747 346.526 51.968 351.715 51.968C353.097 51.968 354.291 51.7813 355.299 51.408C356.307 51.0347 357.371 50.5493 358.491 49.952C358.603 49.8773 358.902 49.728 359.387 49.504C359.91 49.2427 360.339 49.112 360.675 49.112ZM350.931 32.144C348.766 32.144 347.03 32.8347 345.723 34.216C344.417 35.5973 343.633 37.5387 343.371 40.04H357.819C357.707 37.5013 357.054 35.56 355.859 34.216C354.702 32.8347 353.059 32.144 350.931 32.144ZM371.78 56.28C370.959 56.28 370.268 56.056 369.708 55.608C369.185 55.16 368.924 54.488 368.924 53.592V18.984C368.924 18.088 369.185 17.416 369.708 16.968C370.268 16.4827 370.959 16.24 371.78 16.24C372.601 16.24 373.273 16.4827 373.796 16.968C374.319 17.416 374.58 18.088 374.58 18.984V53.592C374.58 54.488 374.319 55.16 373.796 55.608C373.273 56.056 372.601 56.28 371.78 56.28ZM154.003 132.28C153.144 132.28 152.453 132.019 151.931 131.496C151.408 130.973 151.147 130.264 151.147 129.368V95.152C151.147 94.2933 151.408 93.6027 151.931 93.08C152.453 92.52 153.144 92.24 154.003 92.24C154.899 92.24 155.608 92.5013 156.131 93.024C156.653 93.5467 156.915 94.256 156.915 95.152V129.368C156.915 130.264 156.653 130.973 156.131 131.496C155.645 132.019 154.936 132.28 154.003 132.28ZM154.003 88.096C152.92 88.096 152.061 87.7973 151.427 87.2C150.792 86.6027 150.475 85.8187 150.475 84.848C150.475 83.84 150.792 83.056 151.427 82.496C152.061 81.8987 152.92 81.6 154.003 81.6C155.048 81.6 155.888 81.8987 156.523 82.496C157.195 83.056 157.531 83.84 157.531 84.848C157.531 85.8187 157.213 86.6027 156.579 87.2C155.944 87.7973 155.085 88.096 154.003 88.096ZM180.132 104C186.666 104 189.932 107.677 189.932 115.032V129.592C189.932 130.451 189.671 131.123 189.148 131.608C188.663 132.056 187.972 132.28 187.076 132.28C186.218 132.28 185.527 132.037 185.004 131.552C184.519 131.067 184.276 130.413 184.276 129.592V115.312C184.276 112.997 183.81 111.299 182.876 110.216C181.98 109.133 180.562 108.592 178.62 108.592C176.343 108.592 174.514 109.301 173.132 110.72C171.751 112.139 171.06 114.043 171.06 116.432V129.592C171.06 130.413 170.799 131.067 170.276 131.552C169.791 132.037 169.119 132.28 168.26 132.28C167.402 132.28 166.711 132.037 166.188 131.552C165.666 131.067 165.404 130.413 165.404 129.592V106.8C165.404 106.016 165.666 105.381 166.188 104.896C166.748 104.373 167.439 104.112 168.26 104.112C169.082 104.112 169.735 104.355 170.22 104.84C170.706 105.325 170.948 105.96 170.948 106.744V109.04C171.844 107.397 173.095 106.147 174.7 105.288C176.306 104.429 178.116 104 180.132 104ZM218.39 124.328C218.39 126.605 217.475 128.472 215.646 129.928C213.854 131.347 211.446 132.149 208.422 132.336L208.142 134.464C208.665 134.352 209.131 134.296 209.542 134.296C210.699 134.296 211.67 134.632 212.454 135.304C213.275 135.976 213.686 136.928 213.686 138.16C213.686 139.541 213.089 140.661 211.894 141.52C210.699 142.416 209.001 142.864 206.798 142.864C205.342 142.864 204.054 142.659 202.934 142.248C202.262 141.987 201.926 141.52 201.926 140.848C201.926 140.4 202.075 140.027 202.374 139.728C202.71 139.429 203.139 139.355 203.662 139.504C204.782 139.803 205.827 139.952 206.798 139.952C207.769 139.952 208.515 139.803 209.038 139.504C209.561 139.205 209.822 138.757 209.822 138.16C209.822 137.712 209.673 137.357 209.374 137.096C209.113 136.872 208.721 136.76 208.198 136.76C207.825 136.76 207.321 136.835 206.686 136.984C206.051 137.133 205.659 137.208 205.51 137.208C205.211 137.208 204.931 137.096 204.67 136.872C204.446 136.685 204.353 136.424 204.39 136.088L204.838 132.28C202.038 131.981 199.705 131.235 197.838 130.04C197.166 129.629 196.681 129.2 196.382 128.752C196.121 128.304 195.99 127.8 195.99 127.24C195.99 126.643 196.158 126.139 196.494 125.728C196.83 125.317 197.259 125.112 197.782 125.112C198.267 125.112 199.033 125.411 200.078 126.008C201.198 126.605 202.281 127.091 203.326 127.464C204.409 127.837 205.753 128.024 207.358 128.024C209.15 128.024 210.55 127.707 211.558 127.072C212.566 126.437 213.07 125.541 213.07 124.384C213.07 123.637 212.865 123.04 212.454 122.592C212.081 122.144 211.409 121.752 210.438 121.416C209.467 121.043 208.03 120.651 206.126 120.24C202.841 119.531 200.47 118.579 199.014 117.384C197.595 116.152 196.886 114.491 196.886 112.4C196.886 110.795 197.353 109.357 198.286 108.088C199.219 106.781 200.507 105.773 202.15 105.064C203.793 104.355 205.659 104 207.75 104C209.243 104 210.699 104.205 212.118 104.616C213.537 104.989 214.787 105.549 215.87 106.296C217.102 107.117 217.718 108.069 217.718 109.152C217.718 109.749 217.531 110.253 217.158 110.664C216.822 111.075 216.411 111.28 215.926 111.28C215.59 111.28 215.254 111.205 214.918 111.056C214.582 110.907 214.134 110.664 213.574 110.328C212.566 109.731 211.614 109.264 210.718 108.928C209.859 108.592 208.777 108.424 207.47 108.424C205.902 108.424 204.633 108.76 203.662 109.432C202.729 110.104 202.262 111.019 202.262 112.176C202.262 113.221 202.691 114.043 203.55 114.64C204.446 115.2 206.107 115.741 208.534 116.264C211.035 116.787 212.995 117.384 214.414 118.056C215.833 118.728 216.841 119.568 217.438 120.576C218.073 121.547 218.39 122.797 218.39 124.328ZM236.166 104C239.787 104 242.475 104.915 244.23 106.744C246.022 108.573 246.918 111.355 246.918 115.088V129.592C246.918 130.451 246.675 131.123 246.19 131.608C245.704 132.056 245.032 132.28 244.174 132.28C243.352 132.28 242.699 132.037 242.214 131.552C241.728 131.067 241.486 130.413 241.486 129.592V127.52C240.776 129.088 239.712 130.301 238.294 131.16C236.912 131.981 235.288 132.392 233.422 132.392C231.63 132.392 229.987 132.037 228.494 131.328C227.038 130.581 225.88 129.573 225.022 128.304C224.163 127.035 223.734 125.597 223.734 123.992C223.696 121.976 224.2 120.408 225.246 119.288C226.291 118.131 227.99 117.309 230.342 116.824C232.694 116.301 235.96 116.04 240.142 116.04H241.43V114.416C241.43 112.325 241 110.813 240.142 109.88C239.283 108.947 237.902 108.48 235.998 108.48C234.691 108.48 233.459 108.648 232.302 108.984C231.144 109.32 229.875 109.805 228.494 110.44C227.486 111 226.776 111.28 226.366 111.28C225.806 111.28 225.339 111.075 224.966 110.664C224.63 110.253 224.462 109.731 224.462 109.096C224.462 108.536 224.611 108.051 224.91 107.64C225.246 107.192 225.768 106.763 226.478 106.352C227.784 105.643 229.315 105.083 231.07 104.672C232.824 104.224 234.523 104 236.166 104ZM234.43 128.192C236.483 128.192 238.163 127.501 239.47 126.12C240.776 124.701 241.43 122.891 241.43 120.688V119.232H240.422C237.51 119.232 235.27 119.363 233.702 119.624C232.134 119.885 231.014 120.333 230.342 120.968C229.67 121.565 229.334 122.443 229.334 123.6C229.334 124.944 229.819 126.045 230.79 126.904C231.76 127.763 232.974 128.192 234.43 128.192ZM266.134 104C269.756 104 272.444 104.915 274.198 106.744C275.99 108.573 276.886 111.355 276.886 115.088V129.592C276.886 130.451 276.644 131.123 276.158 131.608C275.673 132.056 275.001 132.28 274.142 132.28C273.321 132.28 272.668 132.037 272.182 131.552C271.697 131.067 271.454 130.413 271.454 129.592V127.52C270.745 129.088 269.681 130.301 268.262 131.16C266.881 131.981 265.257 132.392 263.39 132.392C261.598 132.392 259.956 132.037 258.462 131.328C257.006 130.581 255.849 129.573 254.99 128.304C254.132 127.035 253.702 125.597 253.702 123.992C253.665 121.976 254.169 120.408 255.214 119.288C256.26 118.131 257.958 117.309 260.31 116.824C262.662 116.301 265.929 116.04 270.11 116.04H271.398V114.416C271.398 112.325 270.969 110.813 270.11 109.88C269.252 108.947 267.87 108.48 265.966 108.48C264.66 108.48 263.428 108.648 262.27 108.984C261.113 109.32 259.844 109.805 258.462 110.44C257.454 111 256.745 111.28 256.334 111.28C255.774 111.28 255.308 111.075 254.934 110.664C254.598 110.253 254.43 109.731 254.43 109.096C254.43 108.536 254.58 108.051 254.878 107.64C255.214 107.192 255.737 106.763 256.446 106.352C257.753 105.643 259.284 105.083 261.038 104.672C262.793 104.224 264.492 104 266.134 104ZM264.398 128.192C266.452 128.192 268.132 127.501 269.438 126.12C270.745 124.701 271.398 122.891 271.398 120.688V119.232H270.39C267.478 119.232 265.238 119.363 263.67 119.624C262.102 119.885 260.982 120.333 260.31 120.968C259.638 121.565 259.302 122.443 259.302 123.6C259.302 124.944 259.788 126.045 260.758 126.904C261.729 127.763 262.942 128.192 264.398 128.192ZM298.007 127.968C298.828 128.043 299.407 128.267 299.743 128.64C300.116 128.976 300.303 129.461 300.303 130.096C300.303 130.843 300.004 131.421 299.407 131.832C298.847 132.205 298.007 132.355 296.887 132.28L295.375 132.168C292.351 131.944 290.092 131.029 288.599 129.424C287.106 127.781 286.359 125.373 286.359 122.2V109.04H282.999C281.356 109.04 280.535 108.312 280.535 106.856C280.535 106.184 280.74 105.661 281.151 105.288C281.599 104.877 282.215 104.672 282.999 104.672H286.359V98.904C286.359 98.0453 286.602 97.3733 287.087 96.888C287.61 96.4027 288.3 96.16 289.159 96.16C290.018 96.16 290.708 96.4027 291.231 96.888C291.754 97.3733 292.015 98.0453 292.015 98.904V104.672H297.559C298.343 104.672 298.94 104.877 299.351 105.288C299.799 105.661 300.023 106.184 300.023 106.856C300.023 107.565 299.799 108.107 299.351 108.48C298.94 108.853 298.343 109.04 297.559 109.04H292.015V122.592C292.015 124.347 292.37 125.635 293.079 126.456C293.826 127.277 294.946 127.744 296.439 127.856L298.007 127.968Z" fill="#696969"/>
</svg>
