<svg width="447" height="138" viewBox="0 0 447 138" fill="none" xmlns="http://www.w3.org/2000/svg">
<rect width="447" height="138" fill="#E5E5E5"/>
<rect width="447" height="138" fill="white"/>
<path d="M84.5419 17.248C85.0646 16.576 85.7179 16.24 86.5019 16.24C87.1739 16.24 87.7712 16.52 88.2939 17.08C88.8539 17.6027 89.1339 18.2187 89.1339 18.928C89.1339 19.6 88.9099 20.1787 88.4619 20.664L75.2459 37.128V53.368C75.2459 54.3013 74.9659 55.0293 74.4059 55.552C73.8832 56.0373 73.1926 56.28 72.3339 56.28C71.4752 56.28 70.7846 56.0373 70.2619 55.552C69.7392 55.0293 69.4779 54.3013 69.4779 53.368V37.128L56.2619 20.664C55.8139 20.1787 55.5899 19.5813 55.5899 18.872C55.5899 18.1627 55.8512 17.5467 56.3739 17.024C56.8966 16.5013 57.5126 16.24 58.2219 16.24C58.9686 16.24 59.6219 16.576 60.1819 17.248L72.3899 32.592L84.5419 17.248ZM124.428 52.64C124.615 53.088 124.708 53.4613 124.708 53.76C124.708 54.4693 124.409 55.0667 123.812 55.552C123.252 56.0373 122.617 56.28 121.908 56.28C121.423 56.28 120.956 56.1493 120.508 55.888C120.097 55.5893 119.78 55.1787 119.556 54.656L115.86 46.256H95.3639L91.6679 54.656C91.4439 55.1787 91.1079 55.5893 90.6599 55.888C90.2119 56.1493 89.7452 56.28 89.2599 56.28C88.5132 56.28 87.8412 56.0373 87.2439 55.552C86.6839 55.0667 86.4039 54.4693 86.4039 53.76C86.4039 53.4613 86.4972 53.088 86.6839 52.64L102.476 18.088C102.737 17.4907 103.148 17.024 103.708 16.688C104.305 16.352 104.921 16.184 105.556 16.184C106.191 16.184 106.788 16.352 107.348 16.688C107.945 17.024 108.375 17.4907 108.636 18.088L124.428 52.64ZM97.4359 41.664H113.844L105.612 23.128L97.4359 41.664ZM133.521 56C132.662 56 131.972 55.7573 131.449 55.272C130.964 54.7867 130.721 54.1333 130.721 53.312V19.152C130.721 18.2933 130.982 17.6027 131.505 17.08C132.028 16.52 132.718 16.24 133.577 16.24C134.473 16.24 135.182 16.5013 135.705 17.024C136.228 17.5467 136.489 18.256 136.489 19.152V51.184H153.513C154.372 51.184 155.025 51.3893 155.473 51.8C155.958 52.2107 156.201 52.808 156.201 53.592C156.201 54.376 155.958 54.9733 155.473 55.384C155.025 55.7947 154.372 56 153.513 56H133.521ZM188.388 47.32C188.91 47.32 189.358 47.5627 189.732 48.048C190.105 48.496 190.292 49.056 190.292 49.728C190.292 50.6613 189.937 51.408 189.228 51.968C187.734 53.312 185.98 54.3573 183.964 55.104C181.985 55.8507 179.876 56.28 177.636 56.392L177.356 58.464C177.878 58.352 178.345 58.296 178.756 58.296C179.913 58.296 180.884 58.632 181.668 59.304C182.489 59.976 182.9 60.928 182.9 62.16C182.9 63.5413 182.302 64.6613 181.108 65.52C179.913 66.416 178.214 66.864 176.012 66.864C174.556 66.864 173.268 66.6587 172.148 66.248C171.476 65.9867 171.14 65.52 171.14 64.848C171.14 64.4 171.289 64.0267 171.588 63.728C171.924 63.4293 172.353 63.3547 172.876 63.504C173.996 63.8027 175.041 63.952 176.012 63.952C176.982 63.952 177.729 63.8027 178.252 63.504C178.774 63.2053 179.036 62.7573 179.036 62.16C179.036 61.712 178.886 61.3573 178.588 61.096C178.326 60.872 177.934 60.76 177.412 60.76C177.038 60.76 176.534 60.8347 175.9 60.984C175.265 61.1333 174.873 61.208 174.724 61.208C174.425 61.208 174.145 61.096 173.884 60.872C173.66 60.6853 173.566 60.424 173.604 60.088L174.052 56.336C170.729 56 167.854 54.9733 165.428 53.256C163.001 51.5387 161.134 49.2427 159.828 46.368C158.558 43.456 157.924 40.0773 157.924 36.232C157.924 32.1253 158.67 28.56 160.164 25.536C161.657 22.4747 163.804 20.1413 166.604 18.536C169.404 16.8933 172.689 16.072 176.46 16.072C178.924 16.072 181.257 16.464 183.46 17.248C185.662 17.9947 187.585 19.096 189.228 20.552C189.937 21.112 190.292 21.8587 190.292 22.792C190.292 23.464 190.105 24.0427 189.732 24.528C189.358 24.976 188.91 25.2 188.388 25.2C187.753 25.2 187.137 24.9573 186.54 24.472C184.748 23.128 183.105 22.1947 181.612 21.672C180.156 21.112 178.494 20.832 176.628 20.832C172.521 20.832 169.366 22.1573 167.164 24.808C164.961 27.4587 163.86 31.2667 163.86 36.232C163.86 41.2347 164.961 45.0613 167.164 47.712C169.366 50.3627 172.521 51.688 176.628 51.688C178.42 51.688 180.044 51.408 181.5 50.848C182.993 50.288 184.673 49.3547 186.54 48.048C187.286 47.5627 187.902 47.32 188.388 47.32ZM200.022 56.28C199.164 56.28 198.473 56.0187 197.95 55.496C197.428 54.9733 197.166 54.264 197.166 53.368V19.152C197.166 18.2933 197.428 17.6027 197.95 17.08C198.473 16.52 199.164 16.24 200.022 16.24C200.918 16.24 201.628 16.5013 202.15 17.024C202.673 17.5467 202.934 18.256 202.934 19.152V53.368C202.934 54.264 202.673 54.9733 202.15 55.496C201.665 56.0187 200.956 56.28 200.022 56.28ZM241.776 16.24C242.597 16.24 243.251 16.52 243.736 17.08C244.259 17.6027 244.52 18.2933 244.52 19.152V53.368C244.52 54.2267 244.259 54.936 243.736 55.496C243.213 56.0187 242.541 56.28 241.72 56.28C240.749 56.28 240.003 55.9067 239.48 55.16L217.528 26.208V53.368C217.528 54.2267 217.267 54.936 216.744 55.496C216.259 56.0187 215.605 56.28 214.784 56.28C213.963 56.28 213.309 56.0187 212.824 55.496C212.339 54.9733 212.096 54.264 212.096 53.368V19.152C212.096 18.2933 212.357 17.6027 212.88 17.08C213.403 16.52 214.075 16.24 214.896 16.24C215.867 16.24 216.613 16.6133 217.136 17.36L239.088 46.368V19.152C239.088 18.2933 239.331 17.6027 239.816 17.08C240.301 16.52 240.955 16.24 241.776 16.24ZM283.113 51.632C283.748 52.2293 284.065 52.8827 284.065 53.592C284.065 54.3013 283.785 54.9173 283.225 55.44C282.702 55.9627 282.086 56.224 281.377 56.224C280.668 56.224 280.014 55.9253 279.417 55.328L259.481 37.352V53.368C259.481 54.264 259.22 54.9733 258.697 55.496C258.212 56.0187 257.502 56.28 256.569 56.28C255.71 56.28 255.02 56.0187 254.497 55.496C253.974 54.9733 253.713 54.264 253.713 53.368V19.152C253.713 18.2933 253.974 17.6027 254.497 17.08C255.02 16.52 255.71 16.24 256.569 16.24C257.465 16.24 258.174 16.5013 258.697 17.024C259.22 17.5467 259.481 18.256 259.481 19.152V34.496L278.577 17.08C279.1 16.5573 279.716 16.296 280.425 16.296C281.134 16.296 281.75 16.5573 282.273 17.08C282.796 17.6027 283.057 18.2 283.057 18.872C283.057 19.5813 282.74 20.2347 282.105 20.832L265.417 35.728L283.113 51.632ZM323.654 52.64C323.841 53.088 323.934 53.4613 323.934 53.76C323.934 54.4693 323.636 55.0667 323.038 55.552C322.478 56.0373 321.844 56.28 321.134 56.28C320.649 56.28 320.182 56.1493 319.734 55.888C319.324 55.5893 319.006 55.1787 318.782 54.656L315.086 46.256H294.59L290.894 54.656C290.67 55.1787 290.334 55.5893 289.886 55.888C289.438 56.1493 288.972 56.28 288.486 56.28C287.74 56.28 287.068 56.0373 286.47 55.552C285.91 55.0667 285.63 54.4693 285.63 53.76C285.63 53.4613 285.724 53.088 285.91 52.64L301.702 18.088C301.964 17.4907 302.374 17.024 302.934 16.688C303.532 16.352 304.148 16.184 304.782 16.184C305.417 16.184 306.014 16.352 306.574 16.688C307.172 17.024 307.601 17.4907 307.862 18.088L323.654 52.64ZM296.662 41.664H313.07L304.838 23.128L296.662 41.664ZM350.159 17.248C350.682 16.576 351.335 16.24 352.119 16.24C352.791 16.24 353.388 16.52 353.911 17.08C354.471 17.6027 354.751 18.2187 354.751 18.928C354.751 19.6 354.527 20.1787 354.079 20.664L340.863 37.128V53.368C340.863 54.3013 340.583 55.0293 340.023 55.552C339.5 56.0373 338.81 56.28 337.951 56.28C337.092 56.28 336.402 56.0373 335.879 55.552C335.356 55.0293 335.095 54.3013 335.095 53.368V37.128L321.879 20.664C321.431 20.1787 321.207 19.5813 321.207 18.872C321.207 18.1627 321.468 17.5467 321.991 17.024C322.514 16.5013 323.13 16.24 323.839 16.24C324.586 16.24 325.239 16.576 325.799 17.248L338.007 32.592L350.159 17.248ZM390.045 52.64C390.232 53.088 390.325 53.4613 390.325 53.76C390.325 54.4693 390.026 55.0667 389.429 55.552C388.869 56.0373 388.234 56.28 387.525 56.28C387.04 56.28 386.573 56.1493 386.125 55.888C385.714 55.5893 385.397 55.1787 385.173 54.656L381.477 46.256H360.981L357.285 54.656C357.061 55.1787 356.725 55.5893 356.277 55.888C355.829 56.1493 355.362 56.28 354.877 56.28C354.13 56.28 353.458 56.0373 352.861 55.552C352.301 55.0667 352.021 54.4693 352.021 53.76C352.021 53.4613 352.114 53.088 352.301 52.64L368.093 18.088C368.354 17.4907 368.765 17.024 369.325 16.688C369.922 16.352 370.538 16.184 371.173 16.184C371.808 16.184 372.405 16.352 372.965 16.688C373.562 17.024 373.992 17.4907 374.253 18.088L390.045 52.64ZM363.053 41.664H379.461L371.229 23.128L363.053 41.664ZM168.353 92.24C169.212 92.24 169.902 92.52 170.425 93.08C170.948 93.6027 171.209 94.2933 171.209 95.152V129.368C171.209 130.227 170.948 130.936 170.425 131.496C169.902 132.019 169.212 132.28 168.353 132.28C167.494 132.28 166.804 132.019 166.281 131.496C165.758 130.973 165.497 130.264 165.497 129.368V114.304H143.433V129.368C143.433 130.227 143.172 130.936 142.649 131.496C142.126 132.019 141.436 132.28 140.577 132.28C139.718 132.28 139.028 132.019 138.505 131.496C137.982 130.973 137.721 130.264 137.721 129.368V95.152C137.721 94.2933 137.982 93.6027 138.505 93.08C139.028 92.52 139.718 92.24 140.577 92.24C141.436 92.24 142.126 92.52 142.649 93.08C143.172 93.6027 143.433 94.2933 143.433 95.152V109.6H165.497V95.152C165.497 94.2933 165.758 93.6027 166.281 93.08C166.804 92.52 167.494 92.24 168.353 92.24ZM197.345 132.448C193.612 132.448 190.364 131.627 187.601 129.984C184.876 128.341 182.766 126.008 181.273 122.984C179.78 119.96 179.033 116.395 179.033 112.288C179.033 108.144 179.761 104.56 181.217 101.536C182.71 98.4747 184.838 96.1413 187.601 94.536C190.364 92.8933 193.612 92.072 197.345 92.072C201.116 92.072 204.382 92.8933 207.145 94.536C209.908 96.1413 212.017 98.4747 213.473 101.536C214.966 104.56 215.713 108.125 215.713 112.232C215.713 116.339 214.966 119.923 213.473 122.984C212.017 126.008 209.908 128.341 207.145 129.984C204.382 131.627 201.116 132.448 197.345 132.448ZM197.345 127.744C201.302 127.744 204.382 126.4 206.585 123.712C208.788 121.024 209.889 117.197 209.889 112.232C209.889 107.267 208.788 103.459 206.585 100.808C204.42 98.12 201.34 96.776 197.345 96.776C193.425 96.776 190.364 98.12 188.161 100.808C185.996 103.459 184.913 107.267 184.913 112.232C184.913 117.197 185.996 121.024 188.161 123.712C190.364 126.4 193.425 127.744 197.345 127.744ZM233.494 132.28C232.635 132.28 231.926 132.019 231.366 131.496C230.843 130.936 230.582 130.227 230.582 129.368V97.336H219.382C217.59 97.336 216.694 96.5333 216.694 94.928C216.694 94.144 216.918 93.5467 217.366 93.136C217.851 92.7253 218.523 92.52 219.382 92.52H247.606C248.465 92.52 249.118 92.7253 249.566 93.136C250.051 93.5467 250.294 94.144 250.294 94.928C250.294 96.5333 249.398 97.336 247.606 97.336H236.406V129.368C236.406 130.227 236.145 130.936 235.622 131.496C235.099 132.019 234.39 132.28 233.494 132.28ZM257.936 132C257.04 132 256.331 131.757 255.808 131.272C255.323 130.749 255.08 130.059 255.08 129.2V95.32C255.08 94.4613 255.323 93.7893 255.808 93.304C256.331 92.7813 257.04 92.52 257.936 92.52H278.544C279.403 92.52 280.056 92.7253 280.504 93.136C280.99 93.5467 281.232 94.1253 281.232 94.872C281.232 95.6187 280.99 96.1973 280.504 96.608C280.056 96.9813 279.403 97.168 278.544 97.168H260.736V109.6H277.424C278.283 109.6 278.936 109.805 279.384 110.216C279.87 110.627 280.112 111.205 280.112 111.952C280.112 112.699 279.87 113.277 279.384 113.688C278.936 114.099 278.283 114.304 277.424 114.304H260.736V127.352H278.544C280.336 127.352 281.232 128.117 281.232 129.648C281.232 130.395 280.99 130.973 280.504 131.384C280.056 131.795 279.403 132 278.544 132H257.936ZM290.638 132C289.779 132 289.089 131.757 288.566 131.272C288.081 130.787 287.838 130.133 287.838 129.312V95.152C287.838 94.2933 288.099 93.6027 288.622 93.08C289.145 92.52 289.835 92.24 290.694 92.24C291.59 92.24 292.299 92.5013 292.822 93.024C293.345 93.5467 293.606 94.256 293.606 95.152V127.184H310.63C311.489 127.184 312.142 127.389 312.59 127.8C313.075 128.211 313.318 128.808 313.318 129.592C313.318 130.376 313.075 130.973 312.59 131.384C312.142 131.795 311.489 132 310.63 132H290.638Z" fill="#696969"/>
</svg>
