<svg width="80" height="80" viewBox="0 0 80 80" fill="none" xmlns="http://www.w3.org/2000/svg">
<g clip-path="url(#clip0)">
<path d="M79.6905 21.8136L66.3574 5.81379C66.1041 5.51114 65.7294 5.33521 65.3333 5.33521H14.6673C14.2713 5.33521 13.8967 5.50989 13.6432 5.81379L0.310127 21.8136C-0.0218995 22.2109 -0.0939298 22.7642 0.126067 23.2321C0.346064 23.7001 0.816683 24.0001 1.33402 24.0001H78.6663C79.1836 24.0001 79.6542 23.7001 79.8742 23.2321C80.0931 22.7656 80.0225 22.2122 79.6905 21.8136ZM4.18086 21.3336L15.2913 8.00048H64.708L75.8185 21.3336H4.18086Z" fill="white"/>
<path d="M41.2336 6.15651C41.0268 5.65792 40.5403 5.33386 40.0016 5.33386H14.6686C14.1913 5.33386 13.7513 5.58855 13.5127 6.00323C13.2741 6.41791 13.2753 6.92587 13.5168 7.33915L22.8499 23.3389C23.0579 23.6949 23.4193 23.9363 23.8299 23.9896C23.8872 23.9963 23.9446 24.0002 24.0005 24.0002C24.3525 24.0002 24.6925 23.8616 24.9446 23.6096L40.9443 7.60977C41.3256 7.22852 41.4403 6.65509 41.2336 6.15651ZM24.2805 20.5016L16.9886 8.00055H36.7816L24.2805 20.5016Z" fill="white"/>
<path d="M79.8596 22.0748C79.6355 21.6201 79.1716 21.3322 78.6649 21.3322H1.33267C0.825957 21.3322 0.363307 21.6201 0.137997 22.0748C-0.0860621 22.5295 -0.0340315 23.0721 0.273933 23.4748L38.9401 74.1408C39.1921 74.4714 39.5842 74.6661 40.0001 74.6661C40.416 74.6661 40.8081 74.4714 41.0574 74.1408L79.7236 23.4748C80.0316 23.0721 80.0835 22.5295 79.8596 22.0748ZM40.0001 71.1355L4.02857 24.0002H75.9716L40.0001 71.1355Z" fill="white"/>
<path d="M41.2723 72.9302L25.2726 22.2642C25.0966 21.7095 24.5832 21.3322 24.0005 21.3322H1.33413C0.827421 21.3322 0.364772 21.6201 0.139462 22.0748C-0.0845972 22.5295 -0.0325667 23.0721 0.275398 23.4748L38.9416 74.1408C39.2002 74.4808 39.5963 74.6661 40.0016 74.6661C40.2095 74.6661 40.4202 74.6181 40.6148 74.5141C41.1897 74.2169 41.4669 73.5475 41.2723 72.9302ZM4.02878 24.0002H23.0232L36.431 66.4584L4.02878 24.0002Z" fill="white"/>
<path d="M66.4894 6.00323C66.252 5.58855 65.8108 5.33386 65.3335 5.33386H40.0004C39.4618 5.33386 38.9751 5.65792 38.7684 6.15651C38.5616 6.65509 38.6763 7.22852 39.0577 7.60977L55.0575 23.6096C55.3081 23.8616 55.6481 24.0002 56.0002 24.0002C56.0575 24.0002 56.1148 23.9961 56.1722 23.9896C56.5816 23.9363 56.9442 23.6963 57.1522 23.3389L66.4853 7.33915C66.7253 6.92587 66.7267 6.41791 66.4894 6.00323ZM55.7202 20.5016L43.2189 8.00055H63.0119L55.7202 20.5016Z" fill="white"/>
<path d="M79.8624 22.0777C79.6384 21.623 79.1745 21.3351 78.6678 21.3351H56.0014C55.4187 21.3351 54.904 21.7124 54.7294 22.2671L38.7296 72.9331C38.5349 73.5491 38.8122 74.2184 39.3869 74.5172C39.5816 74.6184 39.7922 74.6665 40.0002 74.6665C40.4042 74.6665 40.8002 74.4812 41.0602 74.1439L79.7264 23.4779C80.0345 23.0749 80.0863 22.5323 79.8624 22.0777ZM43.5697 66.4584L56.9774 24.0002H75.9719L43.5697 66.4584Z" fill="white"/>
</g>
<defs>
<clipPath id="clip0">
<rect width="80" height="80" fill="white"/>
</clipPath>
</defs>
</svg>
