<svg width="512" height="512" viewBox="0 0 512 512" fill="none" xmlns="http://www.w3.org/2000/svg">
<path d="M256 512C397.385 512 512 397.385 512 256C512 114.615 397.385 0 256 0C114.615 0 0 114.615 0 256C0 397.385 114.615 512 256 512Z" fill="#452F1C"/>
<path d="M511.913 262.706L369.022 119.815L167.725 141.561L145.979 392.185L265.597 511.803C400.31 506.835 508.439 397.796 511.913 262.706Z" fill="#292929"/>
<path d="M369.022 177.815V119.815H145.979V392.185H369.022V334.185H203.979V285H369.022V227H203.979V177.815H369.022Z" fill="#F8FFFB"/>
<path d="M256 119.82H369.02V177.82H256V119.82Z" fill="#D8D8D8"/>
<path d="M256 227H369.02V285H256V227Z" fill="#D8D8D8"/>
<path d="M256 334.18H369.02V392.18H256V334.18Z" fill="#D8D8D8"/>
</svg>
