<svg width="45" height="45" viewBox="0 0 30 30" fill="#843939" xmlns="http://www.w3.org/2000/svg">
<g clip-path="url(#clip0)">
<path d="M29.7357 5.96021L20.6373 15L29.7357 24.0398C29.9002 23.696 30 23.316 30 22.9101V7.08983C30 6.68395 29.9002 6.30397 29.7357 5.96021Z" />
<path d="M27.3633 4.45312H2.63671C2.23083 4.45312 1.85085 4.55291 1.50708 4.71738L13.1358 16.2875C14.164 17.3157 15.836 17.3157 16.8642 16.2875L28.4929 4.71738C28.1491 4.55291 27.7692 4.45312 27.3633 4.45312Z" />
<path d="M0.264258 5.96021C0.0997852 6.30397 0 6.68395 0 7.08983V22.9101C0 23.316 0.0997852 23.6961 0.264258 24.0398L9.36264 15L0.264258 5.96021Z" />
<path d="M19.3945 16.2429L18.1071 17.5304C16.3938 19.2436 13.6061 19.2436 11.8929 17.5304L10.6055 16.2429L1.50708 25.2827C1.85085 25.4472 2.23083 25.547 2.63671 25.547H27.3633C27.7692 25.547 28.1491 25.4472 28.4929 25.2827L19.3945 16.2429Z" />
</g>
<defs>
<clipPath id="clip0">
<rect width="30" height="30" />
</clipPath>
</defs>
</svg>
