<svg width="30" height="30" viewBox="0 0 30 30" fill="none" xmlns="http://www.w3.org/2000/svg">
<path d="M15 0C9.48611 0 5 4.48611 5 10C5 11.6553 5.41385 13.2965 6.20059 14.7522L14.4532 29.6777C14.563 29.8767 14.7724 30 15 30C15.2277 30 15.437 29.8767 15.5469 29.6777L23.8025 14.7473C24.5862 13.2965 25 11.6552 25 9.99996C25 4.48611 20.5139 0 15 0ZM15 15C12.2431 15 10 12.757 10 10C10 7.24307 12.2431 5.00004 15 5.00004C17.757 5.00004 20 7.24307 20 10C20 12.757 17.757 15 15 15Z" fill="white"/>
</svg>
